<svg width="56" height="56" viewBox="0 0 56 56" fill="none" xmlns="http://www.w3.org/2000/svg">
<path fill-rule="evenodd" clip-rule="evenodd" d="M52.3638 37.2234L36.018 9.28046C34.377 6.43561 31.3184 4.66989 28.0106 4.66602C24.7025 4.66215 21.6428 6.42058 19.9814 9.28058L3.62953 37.2338C1.93396 40.0848 1.8956 43.6573 3.53795 46.5708C5.18166 49.4868 8.25941 51.3014 11.6071 51.3287L44.3622 51.3288C47.7447 51.2959 50.8166 49.4868 52.46 46.5734C54.1015 43.6635 54.0649 40.099 52.3638 37.2234ZM7.64906 39.6046L24.013 11.6308C24.8417 10.2043 26.3616 9.33076 28.0052 9.33269C29.6485 9.33461 31.1678 10.2117 31.9828 11.6245L48.3415 39.5896C49.199 41.0392 49.2173 42.8237 48.3955 44.2806C47.5724 45.7396 46.0338 46.6457 44.3394 46.6623L11.6261 46.6621C9.96803 46.6485 8.42639 45.7396 7.60322 44.2792C6.78095 42.8205 6.80015 41.0321 7.64906 39.6046ZM28.001 41.9955C29.2901 41.9955 30.3351 40.9508 30.3351 39.6622C30.3351 38.3735 29.2901 37.3288 28.001 37.3288C26.7119 37.3288 25.6669 38.3735 25.6669 39.6622C25.6669 40.9508 26.7119 41.9955 28.001 41.9955ZM30.342 18.6622H25.6738V34.9955H30.342V18.6622Z" fill="#DA6220"/>
</svg>
