<svg width="35" height="34" viewBox="0 0 35 34" fill="none" xmlns="http://www.w3.org/2000/svg">
<path d="M17.5 1.06592C8.71311 1.06592 1.5 8.27903 1.5 17.0659C1.5 25.8528 8.71311 33.0659 17.5 33.0659C26.2869 33.0659 33.5 25.8528 33.5 17.0659C33.5 8.27903 26.2869 1.06592 17.5 1.06592ZM17.5 31.8856C9.36885 31.8856 2.68033 25.1971 2.68033 17.0659C2.68033 8.93477 9.36885 2.37739 17.5 2.37739C25.7623 2.37739 32.3197 9.06592 32.3197 17.1971C32.3197 25.3282 25.7623 31.8856 17.5 31.8856ZM10.0246 13.1315C10.0246 11.6889 11.0738 10.6397 12.3853 10.6397C13.8279 10.6397 14.8771 11.82 14.8771 13.1315C14.8771 14.443 13.6967 15.4921 12.3853 15.4921C11.0738 15.6233 10.0246 14.443 10.0246 13.1315ZM20.5164 13.1315C20.5164 11.6889 21.6967 10.6397 23.0082 10.6397C24.4508 10.6397 25.5 11.82 25.5 13.1315C25.5 14.443 24.3197 15.4921 23.0082 15.4921C21.6967 15.6233 20.5164 14.443 20.5164 13.1315ZM26.0246 26.2462C24.1885 23.6233 21.041 21.7872 17.5 21.7872C13.959 21.7872 10.9426 23.4921 8.97542 26.3774C10.1557 22.5741 13.4344 19.9512 17.5 19.9512C21.6967 19.82 25.1066 22.5741 26.0246 26.2462Z" fill="#FAB301" stroke="#FAB301" stroke-width="1.6"/>
</svg>
