<svg width="18" height="18" viewBox="0 0 18 18" fill="none" xmlns="http://www.w3.org/2000/svg">
<path d="M15.75 8.81248H2.25C1.53 8.81248 0.9375 8.21998 0.9375 7.49998V5.00997C0.9375 4.49997 1.28998 3.98248 1.76248 3.79498L8.51248 1.095C8.79748 0.982495 9.20252 0.982495 9.48752 1.095L16.2375 3.79498C16.71 3.98248 17.0625 4.50747 17.0625 5.00997V7.49998C17.0625 8.21998 16.47 8.81248 15.75 8.81248ZM9 2.13C8.97 2.13 8.94002 2.12996 8.92502 2.13746L2.18248 4.83749C2.13748 4.85999 2.0625 4.95747 2.0625 5.00997V7.49998C2.0625 7.60498 2.145 7.68748 2.25 7.68748H15.75C15.855 7.68748 15.9375 7.60498 15.9375 7.49998V5.00997C15.9375 4.95747 15.87 4.85999 15.8175 4.83749L9.06752 2.13746C9.05252 2.12996 9.03 2.13 9 2.13Z" fill="#800080"/>
<path d="M16.5 17.0625H1.5C1.1925 17.0625 0.9375 16.8075 0.9375 16.5V14.25C0.9375 13.53 1.53 12.9375 2.25 12.9375H15.75C16.47 12.9375 17.0625 13.53 17.0625 14.25V16.5C17.0625 16.8075 16.8075 17.0625 16.5 17.0625ZM2.0625 15.9375H15.9375V14.25C15.9375 14.145 15.855 14.0625 15.75 14.0625H2.25C2.145 14.0625 2.0625 14.145 2.0625 14.25V15.9375Z" fill="#800080"/>
<path d="M3 14.0625C2.6925 14.0625 2.4375 13.8075 2.4375 13.5V8.25C2.4375 7.9425 2.6925 7.6875 3 7.6875C3.3075 7.6875 3.5625 7.9425 3.5625 8.25V13.5C3.5625 13.8075 3.3075 14.0625 3 14.0625Z" fill="#800080"/>
<path d="M6 14.0625C5.6925 14.0625 5.4375 13.8075 5.4375 13.5V8.25C5.4375 7.9425 5.6925 7.6875 6 7.6875C6.3075 7.6875 6.5625 7.9425 6.5625 8.25V13.5C6.5625 13.8075 6.3075 14.0625 6 14.0625Z" fill="#800080"/>
<path d="M9 14.0625C8.6925 14.0625 8.4375 13.8075 8.4375 13.5V8.25C8.4375 7.9425 8.6925 7.6875 9 7.6875C9.3075 7.6875 9.5625 7.9425 9.5625 8.25V13.5C9.5625 13.8075 9.3075 14.0625 9 14.0625Z" fill="#800080"/>
<path d="M12 14.0625C11.6925 14.0625 11.4375 13.8075 11.4375 13.5V8.25C11.4375 7.9425 11.6925 7.6875 12 7.6875C12.3075 7.6875 12.5625 7.9425 12.5625 8.25V13.5C12.5625 13.8075 12.3075 14.0625 12 14.0625Z" fill="#800080"/>
<path d="M15 14.0625C14.6925 14.0625 14.4375 13.8075 14.4375 13.5V8.25C14.4375 7.9425 14.6925 7.6875 15 7.6875C15.3075 7.6875 15.5625 7.9425 15.5625 8.25V13.5C15.5625 13.8075 15.3075 14.0625 15 14.0625Z" fill="#800080"/>
<path d="M17.25 17.0625H0.75C0.4425 17.0625 0.1875 16.8075 0.1875 16.5C0.1875 16.1925 0.4425 15.9375 0.75 15.9375H17.25C17.5575 15.9375 17.8125 16.1925 17.8125 16.5C17.8125 16.8075 17.5575 17.0625 17.25 17.0625Z" fill="#800080"/>
<path d="M9 6.9375C8.07 6.9375 7.3125 6.18 7.3125 5.25C7.3125 4.32 8.07 3.5625 9 3.5625C9.93 3.5625 10.6875 4.32 10.6875 5.25C10.6875 6.18 9.93 6.9375 9 6.9375ZM9 4.6875C8.6925 4.6875 8.4375 4.9425 8.4375 5.25C8.4375 5.5575 8.6925 5.8125 9 5.8125C9.3075 5.8125 9.5625 5.5575 9.5625 5.25C9.5625 4.9425 9.3075 4.6875 9 4.6875Z" fill="#800080"/>
</svg>
