<svg width="24" height="24" viewBox="0 0 24 24" fill="none" xmlns="http://www.w3.org/2000/svg">
<path d="M15.1617 9V14.8804C15.1617 16.6004 13.5617 17.9904 11.5917 17.9904C9.62174 17.9904 8.01172 16.6004 8.01172 14.8804L8 9" stroke="#800080" stroke-width="1.5" stroke-linecap="round" stroke-linejoin="round"/>
<path d="M22 12C22 17.52 17.52 22 12 22C6.48 22 2 17.52 2 12C2 6.48 6.48 2 12 2" stroke="#800080" stroke-width="1.5" stroke-linecap="round" stroke-linejoin="round"/>
<path d="M17 3V7H21" stroke="#800080" stroke-width="1.5" stroke-linecap="round" stroke-linejoin="round"/>
<path d="M22 2L17 7" stroke="#800080" stroke-width="1.5" stroke-linecap="round" stroke-linejoin="round"/>
<path d="M15.16 9.09998C15.16 9.59998 15.02 10.06 14.78 10.46C14.19 11.43 12.98 12.04 11.58 12.04C10.18 12.04 8.96994 11.42 8.37994 10.46C8.13994 10.06 8 9.59998 8 9.09998C8 8.23998 8.39998 7.46997 9.03998 6.90997C9.68998 6.33997 10.5799 6 11.5699 6C12.5599 6 13.45 6.34997 14.1 6.90997C14.76 7.45997 15.16 8.23998 15.16 9.09998Z" stroke="#800080" stroke-width="1.5" stroke-linecap="round" stroke-linejoin="round"/>
<path d="M15.16 12.1C15.16 12.6 15.02 13.06 14.78 13.46C14.19 14.43 12.98 15.04 11.58 15.04C10.18 15.04 8.96994 14.42 8.37994 13.46C8.13994 13.06 8 12.6 8 12.1" stroke="#800080" stroke-width="1.5" stroke-linecap="round" stroke-linejoin="round"/>
</svg>
