<svg width="8" height="6" viewBox="0 0 8 6" fill="none" xmlns="http://www.w3.org/2000/svg">
<path fill-rule="evenodd" clip-rule="evenodd" d="M6.66663 0.666667H5.60996L5.19663 0.216667C5.07329 0.08 4.89329 0 4.70663 0H3.29329C3.10663 0 2.92663 0.08 2.79996 0.216667L2.38996 0.666667H1.33329C0.966626 0.666667 0.666626 0.966667 0.666626 1.33333V5.33333C0.666626 5.7 0.966626 6 1.33329 6H6.66663C7.03329 6 7.33329 5.7 7.33329 5.33333V1.33333C7.33329 0.966667 7.03329 0.666667 6.66663 0.666667ZM4.00001 2.33331C3.44772 2.33331 3.00001 2.78102 3.00001 3.33331C3.00001 3.88559 3.44772 4.33331 4.00001 4.33331C4.55229 4.33331 5.00001 3.88559 5.00001 3.33331C5.00001 2.78102 4.55229 2.33331 4.00001 2.33331ZM2.33324 3.33336C2.33324 4.25336 3.07991 5.00002 3.99991 5.00002C4.91991 5.00002 5.66658 4.25336 5.66658 3.33336C5.66658 2.41336 4.91991 1.66669 3.99991 1.66669C3.07991 1.66669 2.33324 2.41336 2.33324 3.33336Z" fill="white"/>
</svg>
