<svg width="18" height="23" viewBox="0 0 18 23" fill="none" xmlns="http://www.w3.org/2000/svg">
<path d="M9 0.25C4.903 0.25 0.5 1.30769 0.5 3.63462V18.0192C0.5 20.4308 4.155 22.25 9 22.25C13.845 22.25 17.5 20.4308 17.5 18.0192V3.63462C17.5 1.30769 13.097 0.25 9 0.25ZM15.8 12.9423C15.8 13.9746 13.148 15.4808 9 15.4808C4.852 15.4808 2.2 13.9746 2.2 12.9423V10.4546C4.26735 11.6253 6.62359 12.1941 9 12.0962C11.3764 12.1941 13.7326 11.6253 15.8 10.4546V12.9423ZM15.8 7.86538C15.8 8.89769 13.148 10.4038 9 10.4038C4.852 10.4038 2.2 8.89769 2.2 7.86538V5.76692C4.34823 6.6716 6.66883 7.09897 9 7.01923C11.3312 7.09897 13.6518 6.6716 15.8 5.76692V7.86538ZM9 1.94231C13.4625 1.94231 15.8 3.20308 15.8 3.63462C15.8 4.06615 13.4625 5.32692 9 5.32692C4.5375 5.32692 2.2 4.06615 2.2 3.63462C2.2 3.20308 4.5375 1.94231 9 1.94231ZM9 20.5577C4.852 20.5577 2.2 19.0515 2.2 18.0192V15.5315C4.26735 16.7022 6.62359 17.2711 9 17.1731C11.3764 17.2711 13.7326 16.7022 15.8 15.5315V18.0192C15.8 19.0515 13.148 20.5577 9 20.5577Z" fill="black"/>
</svg>
