<svg width="22" height="22" viewBox="0 0 22 22" fill="none" xmlns="http://www.w3.org/2000/svg">
<path fill-rule="evenodd" clip-rule="evenodd" d="M0 11C0 17.0751 4.92487 22 11 22C17.0751 22 22 17.0751 22 11C22 4.92487 17.0751 0 11 0C4.92487 0 0 4.92487 0 11ZM20 11C20 15.9706 15.9706 20 11 20C6.02944 20 2 15.9706 2 11C2 6.02944 6.02944 2 11 2C15.9706 2 20 6.02944 20 11ZM11.0003 15.9983C11.5528 15.9983 12.0007 15.5506 12.0007 14.9983C12.0007 14.4461 11.5528 13.9983 11.0003 13.9983C10.4479 13.9983 10 14.4461 10 14.9983C10 15.5506 10.4479 15.9983 11.0003 15.9983ZM10 13H12C12 12.2016 12.1254 12.0553 12.9472 11.6444C14.3754 10.9303 15 10.2016 15 8.5C15 6.32063 13.2843 5 11 5C8.79086 5 7 6.79086 7 9H9C9 7.89543 9.89543 7 11 7C12.2772 7 13 7.55641 13 8.5C13 9.29835 12.8746 9.44468 12.0528 9.85557C10.6246 10.5697 10 11.2984 10 13Z" fill="black"/>
</svg>
