<svg width="20" height="20" viewBox="0 0 20 20" fill="none" xmlns="http://www.w3.org/2000/svg">
<path fill-rule="evenodd" clip-rule="evenodd" d="M10.0868 16L4 19.8042V16H2C0.89543 16 0 15.1046 0 14V2C0 0.89543 0.89543 0 2 0H18C19.1046 0 20 0.89543 20 2V14C20 15.1046 19.1046 16 18 16H10.0868ZM6 16.1958L9.5132 14H18V2H2V14H6V16.1958ZM12.2929 4.29289L10 6.58579L7.70711 4.29289L6.29289 5.70711L8.58579 8L6.29289 10.2929L7.70711 11.7071L10 9.41421L12.2929 11.7071L13.7071 10.2929L11.4142 8L13.7071 5.70711L12.2929 4.29289Z" fill="black"/>
</svg>
