<svg width="19" height="22" viewBox="0 0 19 22" fill="none" xmlns="http://www.w3.org/2000/svg">
<path d="M18.1589 4.66518C18.3898 4.89435 18.5877 5.20536 18.7526 5.59821C18.9175 5.99107 19 6.35119 19 6.67857V20.8214C19 21.1488 18.8845 21.4271 18.6536 21.6562C18.4227 21.8854 18.1424 22 17.8125 22H1.1875C0.857639 22 0.577257 21.8854 0.346354 21.6562C0.115451 21.4271 0 21.1488 0 20.8214V1.17857C0 0.85119 0.115451 0.572917 0.346354 0.34375C0.577257 0.114583 0.857639 0 1.1875 0H12.2708C12.6007 0 12.9635 0.0818452 13.3594 0.245536C13.7552 0.409226 14.0686 0.605655 14.2995 0.834821L18.1589 4.66518ZM12.6667 1.66964V6.28571H17.3177C17.2352 6.04836 17.1445 5.88058 17.0456 5.78237L13.1738 1.93973C13.0749 1.84152 12.9058 1.75149 12.6667 1.66964ZM17.4167 20.4286V7.85714H12.2708C11.941 7.85714 11.6606 7.74256 11.4297 7.51339C11.1988 7.28423 11.0833 7.00595 11.0833 6.67857V1.57143H1.58333V20.4286H17.4167ZM5.30664 17.5558V18.8571H8.78255V17.5558H7.85482L9.12891 15.5792C9.17014 15.5219 9.21137 15.4544 9.2526 15.3767C9.29384 15.2989 9.32476 15.2437 9.34538 15.2109C9.36599 15.1782 9.38043 15.1618 9.38867 15.1618H9.41341C9.42166 15.1946 9.44227 15.2355 9.47526 15.2846C9.49175 15.3173 9.51031 15.348 9.53092 15.3767C9.55154 15.4053 9.57628 15.4381 9.60514 15.4749C9.63401 15.5117 9.66081 15.5465 9.68555 15.5792L11.0091 17.5558H10.069V18.8571H13.6686V17.5558H12.8275L10.4525 14.2042L12.8646 10.7422H13.6934V9.42857H10.2422V10.7422H11.1576L9.88346 12.6942C9.85048 12.7515 9.80925 12.819 9.75977 12.8968C9.71029 12.9745 9.67318 13.0298 9.64844 13.0625L9.6237 13.0993H9.59896C9.59071 13.0666 9.5701 13.0257 9.53711 12.9766C9.48763 12.8865 9.41753 12.7924 9.32682 12.6942L8.01562 10.7422H8.95573V9.42857H5.36849V10.7422H6.20964L8.54753 14.0815L6.14779 17.5558H5.30664Z" fill="black"/>
</svg>
