<svg width="24" height="26" viewBox="0 0 24 26" fill="none" xmlns="http://www.w3.org/2000/svg">
<path d="M19.77 9.23L19.78 9.22L16.06 5.5L15 6.56L17.11 8.67C16.17 9.03 15.5 9.93 15.5 11C15.5 12.38 16.62 13.5 18 13.5C18.36 13.5 18.69 13.42 19 13.29V20.5C19 21.05 18.55 21.5 18 21.5C17.45 21.5 17 21.05 17 20.5V16C17 14.9 16.1 14 15 14H14V7C14 5.9 13.1 5 12 5H6C4.9 5 4 5.9 4 7V23H14V15.5H15.5V20.5C15.5 21.88 16.62 23 18 23C19.38 23 20.5 21.88 20.5 20.5V11C20.5 10.31 20.22 9.68 19.77 9.23ZM12 15.5V21H6V14H12V15.5ZM12 12H6V7H12V12ZM18 12C17.45 12 17 11.55 17 11C17 10.45 17.45 10 18 10C18.55 10 19 10.45 19 11C19 11.55 18.55 12 18 12Z" fill="#496376"/>
</svg>
