<svg width="20" height="20" viewBox="0 0 20 20" fill="none" xmlns="http://www.w3.org/2000/svg">
<path d="M10 18.75C7.66254 18.75 5.46567 17.84 3.81317 16.1869C1.11192 13.4862 0.470041 9.39062 2.21692 5.99688C2.37504 5.69 2.75129 5.56938 3.05879 5.72688C3.36629 5.88438 3.48692 6.26125 3.32879 6.56875C1.83129 9.4775 2.38129 12.9875 4.69692 15.3031C6.11317 16.72 7.99629 17.5 10 17.5C12.0032 17.5 13.8869 16.72 15.3032 15.3031C16.7194 13.8863 17.5 12.0031 17.5 10C17.5 7.99625 16.72 6.11312 15.3032 4.69687C13.8863 3.28062 12.0038 2.5 10 2.5C7.99629 2.5 6.11317 3.28062 4.69692 4.69687C4.45254 4.94125 4.05754 4.94125 3.81317 4.69687C3.56879 4.4525 3.56879 4.0575 3.81317 3.81312C5.46567 2.16062 7.66254 1.25 10 1.25C12.3375 1.25 14.535 2.16062 16.1869 3.81312C17.84 5.46562 18.75 7.6625 18.75 10C18.75 12.3369 17.84 14.5344 16.1869 16.1869C14.535 17.84 12.3375 18.75 10 18.75Z" fill="#DA6220"/>
<path d="M9.99999 12.5C9.33249 12.5 8.70436 12.24 8.23186 11.7675C7.25686 10.7925 7.25686 9.20691 8.23186 8.23253C9.01749 7.44691 12.7769 5.95816 13.5225 5.66753C13.7544 5.57753 14.0162 5.63253 14.1912 5.80816C14.3662 5.98378 14.4219 6.24566 14.3319 6.47691C14.0412 7.22253 12.5525 10.9825 11.7669 11.7675C11.2956 12.24 10.6675 12.5 9.99999 12.5ZM12.6175 7.38316C11.0844 8.02566 9.45249 8.78003 9.11624 9.11628C8.62874 9.60378 8.62874 10.3963 9.11624 10.8838C9.58874 11.3563 10.4119 11.3563 10.8844 10.8838C11.22 10.5469 11.975 8.91628 12.6175 7.38316Z" fill="#DA6220"/>
</svg>
