<svg width="34" height="34" viewBox="0 0 34 34" fill="none" xmlns="http://www.w3.org/2000/svg">
<g clip-path="url(#clip0_7336_154705)">
<path d="M16.9991 1.06671C8.21272 1.06671 1 8.27943 1 17.197C1 25.9834 8.21272 33.0649 16.9991 33.0649C25.9167 33.0649 32.9982 25.9834 32.9982 17.197C33.1294 8.27943 25.9167 1.06671 16.9991 1.06671ZM16.9991 31.8847C8.86842 31.8847 2.3114 25.3277 2.3114 17.197C2.3114 9.06627 8.86842 2.50925 16.9991 2.50925C25.261 2.50925 31.818 9.06627 31.818 17.3281C31.818 25.3277 25.261 31.8847 16.9991 31.8847ZM9.65526 13.1316C9.65526 11.6891 10.7044 10.7711 12.0158 10.7711C13.4583 10.7711 14.5075 11.8202 14.5075 13.1316C14.5075 14.5742 13.3272 15.6233 12.0158 15.6233C10.5732 15.7544 9.65526 14.5742 9.65526 13.1316ZM20.1465 13.1316C20.1465 11.6891 21.3268 10.7711 22.6382 10.7711C24.0807 10.7711 25.1298 11.8202 25.1298 13.1316C25.1298 14.5742 23.9496 15.6233 22.6382 15.6233C21.1956 15.7544 20.1465 14.5742 20.1465 13.1316ZM8.99956 19.9509H25.9167C24.7364 23.6228 21.4579 26.2457 17.3925 26.2457C13.4583 26.3768 9.91754 23.6228 8.99956 19.9509Z" fill="#D2D1D7" stroke="#D2D1D7" stroke-width="1.6"/>
</g>
<defs>
<clipPath id="clip0_7336_154705">
<rect width="34" height="34" fill="white"/>
</clipPath>
</defs>
</svg>
