<svg width="20" height="20" viewBox="0 0 20 20" fill="none" xmlns="http://www.w3.org/2000/svg">
<path fill-rule="evenodd" clip-rule="evenodd" d="M6.66671 5.00004H4.26178C5.87059 3.15952 7.63272 2.50004 10 2.50004C14.1422 2.50004 17.5 5.8579 17.5 10C17.5 14.1422 14.1422 17.5 10 17.5C5.8579 17.5 2.50004 14.1422 2.50004 10H0.833374C0.833374 15.0626 4.93743 19.1667 10 19.1667C15.0626 19.1667 19.1667 15.0626 19.1667 10C19.1667 4.93743 15.0626 0.833374 10 0.833374C7.32223 0.833374 5.1976 1.59217 3.33337 3.54708V1.65938H1.66671V6.66671H6.66671V5.00004ZM14.1667 9.16671H10.8334V5.00004H9.16671V10.8334H14.1667V9.16671Z" fill="#002540" fill-opacity="0.7"/>
</svg>
