<svg width="18" height="18" viewBox="0 0 18 18" fill="none" xmlns="http://www.w3.org/2000/svg">
<path fill-rule="evenodd" clip-rule="evenodd" d="M5.66666 6.50008C5.66666 3.27842 8.27833 0.666748 11.5 0.666748C14.7217 0.666748 17.3333 3.27842 17.3333 6.50008C17.3333 9.72174 14.7217 12.3334 11.5 12.3334H9.83332V14.0001H8.16666V15.6667H6.49999V17.3334H0.666656V12.8216L5.78999 7.69823C5.70828 7.30714 5.66666 6.90617 5.66666 6.50008ZM8.16666 10.6667H11.5C13.8012 10.6667 15.6667 8.80127 15.6667 6.50008C15.6667 4.19889 13.8012 2.33341 11.5 2.33341C9.1988 2.33341 7.33332 4.19889 7.33332 6.50008C7.33332 6.91561 7.3939 7.32206 7.51172 7.7108L7.65656 8.18868L2.33332 13.5119V15.6667H4.83332V14.0001H6.49999V12.3334H8.16666V10.6667ZM9.83332 6.50008C9.83332 7.42056 10.5795 8.16675 11.5 8.16675C12.4205 8.16675 13.1667 7.42056 13.1667 6.50008C13.1667 5.57961 12.4205 4.83341 11.5 4.83341C10.5795 4.83341 9.83332 5.57961 9.83332 6.50008Z" fill="#002540" fill-opacity="0.7"/>
</svg>
