<svg width="24" height="26" viewBox="0 0 24 26" fill="none" xmlns="http://www.w3.org/2000/svg">
<path fill-rule="evenodd" clip-rule="evenodd" d="M12 25.3276L12.6577 24.7533C18.1887 19.9237 21 15.7068 21 12C21 6.75066 16.9029 3 12 3C7.09705 3 3 6.75066 3 12C3 15.7068 5.81131 19.9237 11.3423 24.7533L12 25.3276ZM12 22.6634C7.30661 18.4335 5 14.8492 5 12C5 7.8966 8.16411 5 12 5C15.8359 5 19 7.8966 19 12C19 14.8492 16.6934 18.4335 12 22.6634ZM12 7C14.7614 7 17 9.23858 17 12C17 14.7614 14.7614 17 12 17C9.23858 17 7 14.7614 7 12C7 9.23858 9.23858 7 12 7ZM9 12C9 10.3431 10.3431 9 12 9C13.6569 9 15 10.3431 15 12C15 13.6569 13.6569 15 12 15C10.3431 15 9 13.6569 9 12Z" fill="#496376"/>
</svg>
