<svg width="14" height="18" viewBox="0 0 14 18" fill="none" xmlns="http://www.w3.org/2000/svg">
<path fill-rule="evenodd" clip-rule="evenodd" d="M2.83337 4.83329V7.33329H2.00004C1.10975 7.33329 0.333374 7.98027 0.333374 8.86107V15.8055C0.333374 16.6863 1.10975 17.3333 2.00004 17.3333H12C12.8903 17.3333 13.6667 16.6863 13.6667 15.8055V8.86107C13.6667 7.98027 12.8903 7.33329 12 7.33329H11.1667V4.83329C11.1667 2.53211 9.30123 0.666626 7.00004 0.666626C4.69885 0.666626 2.83337 2.53211 2.83337 4.83329ZM9.50004 4.83329V7.33329H4.50004V4.83329C4.50004 3.45258 5.61933 2.33329 7.00004 2.33329C8.38075 2.33329 9.50004 3.45258 9.50004 4.83329ZM2.00004 15.6666V8.99996H12V15.6666H2.00004ZM7.83337 12.3333C7.83337 12.7935 7.46028 13.1666 7.00004 13.1666C6.5398 13.1666 6.16671 12.7935 6.16671 12.3333C6.16671 11.8731 6.5398 11.5 7.00004 11.5C7.46028 11.5 7.83337 11.8731 7.83337 12.3333Z" fill="#002540" fill-opacity="0.7"/>
</svg>
