<svg width="65" height="79" viewBox="0 0 65 79" fill="none" xmlns="http://www.w3.org/2000/svg">
<path d="M0 19.08C0 12.4726 0 9.16885 1.26546 6.63626C2.42698 4.31169 4.31169 2.42698 6.63626 1.26546C9.16885 0 12.4726 0 19.08 0H45.92C52.5274 0 55.8312 0 58.3637 1.26546C60.6883 2.42698 62.573 4.31169 63.7345 6.63626C65 9.16885 65 12.4726 65 19.08V54.274C65 59.0005 65 61.3638 64.3435 63.2661C63.1404 66.7523 60.401 69.4917 56.9147 70.6948C55.0124 71.3513 52.6492 71.3513 47.9227 71.3513H47.5951C45.7159 71.3513 44.7763 71.3513 43.883 71.4866C41.7691 71.8068 39.7791 72.6858 38.1189 74.0329C37.4173 74.6022 36.7846 75.2968 35.519 76.686V76.686C34.7809 77.4963 34.4118 77.9014 34.0201 78.1316C33.0817 78.6831 31.9183 78.6831 30.9799 78.1316C30.5882 77.9014 30.2191 77.4963 29.481 76.686V76.686C28.2154 75.2968 27.5827 74.6022 26.8811 74.0329C25.2209 72.6858 23.2309 71.8068 21.117 71.4866C20.2237 71.3513 19.2841 71.3513 17.4049 71.3513H17.0773C12.3508 71.3513 9.98759 71.3513 8.08528 70.6948C4.59902 69.4917 1.85963 66.7523 0.6565 63.2661C0 61.3638 0 59.0005 0 54.274V19.08Z" fill="white"/>
</svg>
