<svg width="59" height="40" viewBox="0 0 59 40" fill="none" xmlns="http://www.w3.org/2000/svg">
<rect x="0.5" y="0.5" width="57.3333" height="39" rx="5.5" fill="white" stroke="#D9D9D9"/>
<path fill-rule="evenodd" clip-rule="evenodd" d="M29.5835 28.5949C27.5975 30.3087 25.0214 31.3433 22.2064 31.3433C15.9253 31.3433 10.8335 26.1923 10.8335 19.8383C10.8335 13.4843 15.9253 8.33331 22.2064 8.33331C25.0214 8.33331 27.5975 9.3679 29.5835 11.0817C31.5694 9.3679 34.1456 8.33331 36.9605 8.33331C43.2416 8.33331 48.3335 13.4843 48.3335 19.8383C48.3335 26.1923 43.2416 31.3433 36.9605 31.3433C34.1456 31.3433 31.5694 30.3087 29.5835 28.5949Z" fill="#ED0006"/>
<path fill-rule="evenodd" clip-rule="evenodd" d="M29.5835 28.5949C32.0288 26.4847 33.5794 23.3447 33.5794 19.8383C33.5794 16.3319 32.0288 13.1919 29.5835 11.0817C31.5694 9.3679 34.1456 8.33331 36.9605 8.33331C43.2416 8.33331 48.3335 13.4843 48.3335 19.8383C48.3335 26.1923 43.2416 31.3433 36.9605 31.3433C34.1456 31.3433 31.5694 30.3087 29.5835 28.5949Z" fill="#F9A000"/>
<path fill-rule="evenodd" clip-rule="evenodd" d="M29.5837 11.0817C32.029 13.192 33.5796 16.3319 33.5796 19.8383C33.5796 23.3446 32.029 26.4846 29.5837 28.5948C27.1384 26.4846 25.5879 23.3446 25.5879 19.8383C25.5879 16.3319 27.1384 13.192 29.5837 11.0817Z" fill="#FF5E00"/>
</svg>
