<svg width="24" height="24" viewBox="0 0 24 24" fill="none" xmlns="http://www.w3.org/2000/svg">
<g opacity="0.6">
<path d="M18 10.75H15.75C15.087 10.75 14.4511 10.4866 13.9822 10.0178C13.5134 9.54893 13.25 8.91304 13.25 8.25V6C13.25 5.33696 13.5134 4.70107 13.9822 4.23223C14.4511 3.76339 15.087 3.5 15.75 3.5H18C18.663 3.5 19.2989 3.76339 19.7678 4.23223C20.2366 4.70107 20.5 5.33696 20.5 6V8.25C20.5 8.91304 20.2366 9.54893 19.7678 10.0178C19.2989 10.4866 18.663 10.75 18 10.75ZM15.75 4C15.2196 4 14.7109 4.21071 14.3358 4.58579C13.9607 4.96086 13.75 5.46957 13.75 6V8.25C13.75 8.78043 13.9607 9.28914 14.3358 9.66421C14.7109 10.0393 15.2196 10.25 15.75 10.25H18C18.5304 10.25 19.0391 10.0393 19.4142 9.66421C19.7893 9.28914 20 8.78043 20 8.25V6C20 5.46957 19.7893 4.96086 19.4142 4.58579C19.0391 4.21071 18.5304 4 18 4H15.75Z" fill="#666666" stroke="#666666"/>
<path d="M8.25 10.75H6C5.33696 10.75 4.70107 10.4866 4.23223 10.0178C3.76339 9.54893 3.5 8.91304 3.5 8.25V6C3.5 5.33696 3.76339 4.70107 4.23223 4.23223C4.70107 3.76339 5.33696 3.5 6 3.5H8.25C8.91304 3.5 9.54893 3.76339 10.0178 4.23223C10.4866 4.70107 10.75 5.33696 10.75 6V8.25C10.75 8.91304 10.4866 9.54893 10.0178 10.0178C9.54893 10.4866 8.91304 10.75 8.25 10.75ZM6 4C5.46957 4 4.96086 4.21071 4.58579 4.58579C4.21071 4.96086 4 5.46957 4 6V8.25C4 8.78043 4.21071 9.28914 4.58579 9.66421C4.96086 10.0393 5.46957 10.25 6 10.25H8.25C8.78043 10.25 9.28914 10.0393 9.66421 9.66421C10.0393 9.28914 10.25 8.78043 10.25 8.25V6C10.25 5.46957 10.0393 4.96086 9.66421 4.58579C9.28914 4.21071 8.78043 4 8.25 4H6Z" fill="#666666" stroke="#666666"/>
<path d="M8.25 21H6C5.20435 21 4.44129 20.6839 3.87868 20.1213C3.31607 19.5587 3 18.7956 3 18V15.75C3 14.9544 3.31607 14.1913 3.87868 13.6287C4.44129 13.0661 5.20435 12.75 6 12.75H8.25C9.04565 12.75 9.80871 13.0661 10.3713 13.6287C10.9339 14.1913 11.25 14.9544 11.25 15.75V18C11.25 18.7956 10.9339 19.5587 10.3713 20.1213C9.80871 20.6839 9.04565 21 8.25 21ZM6 14.25C5.60218 14.25 5.22064 14.408 4.93934 14.6893C4.65804 14.9706 4.5 15.3522 4.5 15.75V18C4.5 18.3978 4.65804 18.7794 4.93934 19.0607C5.22064 19.342 5.60218 19.5 6 19.5H8.25C8.64782 19.5 9.02936 19.342 9.31066 19.0607C9.59196 18.7794 9.75 18.3978 9.75 18V15.75C9.75 15.3522 9.59196 14.9706 9.31066 14.6893C9.02936 14.408 8.64782 14.25 8.25 14.25H6Z" fill="#666666"/>
<path d="M18 21H15.75C14.9544 21 14.1913 20.6839 13.6287 20.1213C13.0661 19.5587 12.75 18.7956 12.75 18V15.75C12.75 14.9544 13.0661 14.1913 13.6287 13.6287C14.1913 13.0661 14.9544 12.75 15.75 12.75H18C18.7956 12.75 19.5587 13.0661 20.1213 13.6287C20.6839 14.1913 21 14.9544 21 15.75V18C21 18.7956 20.6839 19.5587 20.1213 20.1213C19.5587 20.6839 18.7956 21 18 21ZM15.75 14.25C15.3522 14.25 14.9706 14.408 14.6893 14.6893C14.408 14.9706 14.25 15.3522 14.25 15.75V18C14.25 18.3978 14.408 18.7794 14.6893 19.0607C14.9706 19.342 15.3522 19.5 15.75 19.5H18C18.3978 19.5 18.7794 19.342 19.0607 19.0607C19.342 18.7794 19.5 18.3978 19.5 18V15.75C19.5 15.3522 19.342 14.9706 19.0607 14.6893C18.7794 14.408 18.3978 14.25 18 14.25H15.75Z" fill="#666666"/>
</g>
</svg>
