<svg width="74" height="89" viewBox="0 0 74 89" fill="none" xmlns="http://www.w3.org/2000/svg">
<g filter="url(#filter0_d_7389_153585)">
<path d="M8 20.08C8 13.4726 8 10.1688 9.26546 7.63626C10.427 5.31169 12.3117 3.42698 14.6363 2.26546C17.1688 1 20.4726 1 27.08 1H46.92C53.5274 1 56.8312 1 59.3637 2.26546C61.6883 3.42698 63.573 5.31169 64.7345 7.63626C66 10.1688 66 13.4726 66 20.08V51.8743C66 54.7793 66 56.2317 65.7498 57.4378C64.7783 62.1199 61.1199 65.7783 56.4378 66.7498C55.2317 67 53.7793 67 50.8743 67H50.5692C49.4823 67 48.9389 67 48.4197 67.0452C45.699 67.2819 43.1405 68.4396 41.1667 70.327C40.7901 70.6872 40.4313 71.0954 39.7138 71.9118V71.9118C39.2921 72.3918 39.0812 72.6318 38.8775 72.7952C37.7806 73.6754 36.2194 73.6754 35.1225 72.7952C34.9188 72.6318 34.7079 72.3918 34.2862 71.9118V71.9118C33.5687 71.0954 33.2099 70.6872 32.8333 70.327C30.8595 68.4396 28.301 67.2819 25.5803 67.0452C25.0611 67 24.5177 67 23.4308 67H23.1257C20.2207 67 18.7683 67 17.5622 66.7498C12.8801 65.7783 9.22165 62.1199 8.25023 57.4378C8 56.2317 8 54.7793 8 51.8743V20.08Z" fill="white"/>
<path d="M27.08 2H46.92C50.2399 2 52.6707 2.00075 54.5898 2.15497C56.4975 2.30827 57.8128 2.60841 58.9168 3.16001C61.0476 4.22473 62.7753 5.95239 63.84 8.08324C64.3916 9.18716 64.6917 10.5025 64.845 12.4102C64.9992 14.3292 65 16.7601 65 20.08V51.8743C65 54.8293 64.9947 56.1544 64.7706 57.2347C63.8801 61.5266 60.5266 64.8801 56.2347 65.7706C55.1544 65.9947 53.8293 66 50.8743 66H50.5692H50.5147C49.4795 66 48.8958 66 48.333 66.0489C45.3856 66.3054 42.6139 67.5596 40.4756 69.6042C40.0674 69.9946 39.6821 70.433 38.9989 71.2105L38.9627 71.2517C38.5117 71.7649 38.37 71.9203 38.2517 72.0152C37.5204 72.602 36.4796 72.602 35.7483 72.0152C35.63 71.9203 35.4883 71.7649 35.0373 71.2517L35.0011 71.2105C34.3179 70.433 33.9326 69.9946 33.5244 69.6042C31.3861 67.5596 28.6144 66.3054 25.667 66.0489C25.1042 66 24.5205 66 23.4853 66H23.4308H23.1257C20.1707 66 18.8456 65.9947 17.7653 65.7706C13.4734 64.8801 10.1198 61.5266 9.22938 57.2347C9.00526 56.1544 9 54.8293 9 51.8743V20.08C9 16.7601 9.00075 14.3292 9.15497 12.4102C9.30827 10.5025 9.60841 9.18716 10.16 8.08324C11.2247 5.95239 12.9524 4.22473 15.0832 3.16001C16.1872 2.60841 17.5025 2.30827 19.4102 2.15497C21.3292 2.00075 23.7601 2 27.08 2Z" stroke="#FAB301" stroke-width="2"/>
</g>
<defs>
<filter id="filter0_d_7389_153585" x="0" y="0" width="74" height="88.4553" filterUnits="userSpaceOnUse" color-interpolation-filters="sRGB">
<feFlood flood-opacity="0" result="BackgroundImageFix"/>
<feColorMatrix in="SourceAlpha" type="matrix" values="0 0 0 0 0 0 0 0 0 0 0 0 0 0 0 0 0 0 127 0" result="hardAlpha"/>
<feOffset dy="7"/>
<feGaussianBlur stdDeviation="4"/>
<feComposite in2="hardAlpha" operator="out"/>
<feColorMatrix type="matrix" values="0 0 0 0 0 0 0 0 0 0 0 0 0 0 0 0 0 0 0.08 0"/>
<feBlend mode="normal" in2="BackgroundImageFix" result="effect1_dropShadow_7389_153585"/>
<feBlend mode="normal" in="SourceGraphic" in2="effect1_dropShadow_7389_153585" result="shape"/>
</filter>
</defs>
</svg>
