<svg width="32" height="32" viewBox="0 0 32 32" fill="none" xmlns="http://www.w3.org/2000/svg">
<rect width="32" height="32" rx="16" fill="#800080" fill-opacity="0.1"/>
<path fill-rule="evenodd" clip-rule="evenodd" d="M11.3333 17.3337C10.597 17.3337 10 16.7367 10 16.0003C10 15.2639 10.597 14.667 11.3333 14.667C12.0697 14.667 12.6667 15.2639 12.6667 16.0003C12.6667 16.7367 12.0697 17.3337 11.3333 17.3337ZM16 17.3337C15.2636 17.3337 14.6667 16.7367 14.6667 16.0003C14.6667 15.2639 15.2636 14.667 16 14.667C16.7364 14.667 17.3333 15.2639 17.3333 16.0003C17.3333 16.7367 16.7364 17.3337 16 17.3337ZM19.3333 16.0003C19.3333 16.7367 19.9303 17.3337 20.6667 17.3337C21.403 17.3337 22 16.7367 22 16.0003C22 15.2639 21.403 14.667 20.6667 14.667C19.9303 14.667 19.3333 15.2639 19.3333 16.0003Z" fill="#800080"/>
</svg>
