<svg width="32" height="32" viewBox="0 0 32 32" fill="none" xmlns="http://www.w3.org/2000/svg">
<path d="M13.9292 6.45959H16.8911" stroke="white" stroke-width="2.17999" stroke-miterlimit="10" stroke-linecap="round" stroke-linejoin="round"/>
<path d="M15.8839 25.6956C16.2111 25.6956 16.4763 25.4304 16.4763 25.1033C16.4763 24.7761 16.2111 24.5109 15.8839 24.5109C15.5567 24.5109 15.2915 24.7761 15.2915 25.1033C15.2915 25.4304 15.5567 25.6956 15.8839 25.6956Z" stroke="white" stroke-width="2.17999" stroke-miterlimit="10" stroke-linecap="round" stroke-linejoin="round"/>
<path d="M21.6304 29.0652H9.78264C8.47939 29.0652 7.41309 27.9988 7.41309 26.6956V5.36956C7.41309 4.0663 8.47939 3 9.78264 3H21.6304C22.9337 3 24 4.0663 24 5.36956V26.6956C24 27.9988 22.9337 29.0652 21.6304 29.0652Z" stroke="white" stroke-width="2.17999" stroke-miterlimit="10" stroke-linecap="round" stroke-linejoin="round"/>
<path d="M16.1779 12.2175L14.5928 15.4115H16.7728L15.3194 18.7575" stroke="white" stroke-width="2.17999" stroke-miterlimit="10" stroke-linecap="round" stroke-linejoin="round"/>
</svg>
