<svg width="268" height="98" viewBox="0 0 268 98" fill="none" xmlns="http://www.w3.org/2000/svg">
<g opacity="0.6">
<path opacity="0.4" d="M70.0457 69.9873C69.5142 70.519 68.803 70.8112 68.0469 70.8112H62.0582C60.5011 70.8112 59.2285 69.5453 59.2285 67.9799V44.2214C59.2285 39.7723 55.6503 36.1621 51.2261 36.0872V5.72999C51.2261 2.65906 48.7408 0.172363 45.6641 0.172363H9.6194C6.54269 0.172363 4.05736 2.65906 4.05736 5.72999V89.8734H0V98.0001H53.4195V89.8734H51.2336V39.0907C54.0034 39.1656 56.2342 41.4351 56.2342 44.2214V67.9799C56.2342 71.2006 58.8542 73.8147 62.0657 73.8147H68.0544C69.6115 73.8147 71.0712 73.208 72.1567 72.1294L78.4299 66.0774L78.2652 62.0628L70.0457 69.9873ZM10.6225 5.49031H44.9828V30.4847H10.6225V5.49031Z" fill="#002540" fill-opacity="0.7"/>
<path opacity="0.4" d="M265.645 24.8895H256.355C254.88 24.8895 253.75 26.1928 253.952 27.6533C254.027 28.1851 253.847 28.7244 253.458 29.1064L251.968 30.567L238.688 5.07826C237.146 2.11969 234.159 0.194742 230.836 0H155.535C152.204 0.194742 149.224 2.11969 147.682 5.07826L134.439 30.4771L133.032 29.0989C132.65 28.7244 132.463 28.1851 132.538 27.6458C132.74 26.1853 131.61 24.882 130.135 24.882H120.845C120.104 24.882 119.498 25.4887 119.498 26.2302V30.2224C119.498 30.919 120.029 31.5032 120.718 31.5631L129.274 31.7953C130.322 31.8927 131.947 32.1099 132.755 32.784L133.062 33.1061L129.836 39.3004L122.103 36.8811L108.433 37.9297L107.4 37.1208C106.375 36.3193 104.945 36.3118 103.919 37.1058L100.813 39.5026L99.091 38.9259C98.2226 38.6338 97.2719 38.8959 96.6656 39.5775L94.6144 41.9369C94.2626 42.3413 94.2776 42.9555 94.6593 43.3375L96.0817 44.7606L88.6706 51.9361C88.5883 52.0185 88.5134 52.1159 88.446 52.2132L83.7598 56.7447L84.0069 56.9769C84.224 57.0893 84.3363 57.3364 84.2839 57.5761L83.2882 61.3736L89.277 55.5988L89.3144 55.6062C89.7935 55.7411 90.2427 55.9882 90.6169 56.3103L96.7255 61.6058C97.3917 62.19 98.4098 62.1301 99.0086 61.471L111.45 47.854C111.72 47.5619 111.862 47.1724 111.862 46.7755V42.3338C111.862 41.4875 112.528 40.7834 113.374 40.7385L122.38 40.2891L128.473 41.9144C127.515 43.7495 127.013 45.7943 127.013 47.8615V95.1987H145.489V84.7201H158.447L162.025 81.1324H193.189H224.353L227.931 84.7201H240.889V95.1987H259.364V47.8615C259.364 45.7943 258.863 43.7495 257.905 41.9144L253.353 33.181L253.75 32.769C254.558 32.0949 256.183 31.8777 257.231 31.7803L265.787 31.5482C266.483 31.4807 267.007 30.904 267.007 30.2074V26.2152C267 25.4887 266.394 24.8895 265.645 24.8895ZM103.86 52.8349C103.86 53.1195 103.747 53.3892 103.545 53.5914L98.7616 58.445C98.3723 58.8345 97.7435 58.8345 97.3617 58.4375L93.3343 54.288C92.975 53.9135 92.96 53.3367 93.3044 52.9548C94.6294 51.4717 97.8558 48.0712 99.2707 46.5957C99.6524 46.1987 100.266 46.1688 100.685 46.5283L101.224 46.9927L100.551 48.7903L97.1596 51.4193C96.9949 51.5466 96.965 51.7788 97.0923 51.9436C97.1671 52.041 97.2794 52.0859 97.3917 52.0859C97.474 52.0859 97.5489 52.0634 97.6238 52.011L101.097 49.3146C101.15 49.2696 101.195 49.2172 101.217 49.1498L101.831 47.5095L103.5 48.9401C103.732 49.1423 103.874 49.4419 103.874 49.749V52.8349H103.86ZM147.345 58.1379C147.338 58.1379 147.338 58.1379 147.33 58.1379L138.654 58.1229C133.743 58.1229 129.791 54.0183 130.015 49.0524C130.24 44.3936 134.245 40.8209 138.901 40.8209H142.539C144.104 40.8209 145.549 41.6747 146.305 43.0454L151.088 51.7788C151.44 52.4155 151.62 53.127 151.62 53.8461C151.627 56.2129 149.711 58.1379 147.345 58.1379ZM227.317 59.3663C227.317 59.8756 227.018 60.34 226.561 60.5422C215.609 65.4407 204.493 67.3282 193.189 68.197C181.885 67.3282 170.761 65.4407 159.817 60.5422C159.353 60.3325 159.061 59.8681 159.061 59.3663V55.0819C159.061 54.3704 159.637 53.7936 160.348 53.7936H226.045C226.756 53.7936 227.332 54.3704 227.332 55.0819V59.3663H227.317ZM193.181 29.3236H141.581L150.908 7.48257C151.635 5.78982 153.296 4.68878 155.146 4.68878H162.31H224.053H231.217C233.059 4.68878 234.728 5.78982 235.454 7.48257L244.782 29.3236H193.181ZM256.348 49.0599C256.572 54.0258 252.627 58.1304 247.709 58.1304L239.033 58.1454C239.025 58.1454 239.025 58.1454 239.018 58.1454C236.652 58.1454 234.736 56.2204 234.736 53.8536C234.736 53.1345 234.915 52.423 235.267 51.7863L240.051 43.0529C240.807 41.6822 242.252 40.8283 243.816 40.8283H247.454C252.118 40.8209 256.123 44.4011 256.348 49.0599Z" fill="#002540" fill-opacity="0.7"/>
</g>
<path fill-rule="evenodd" clip-rule="evenodd" d="M80.6244 49.3887L83.1353 48.6193C83.6434 48.4713 84.1217 48.9547 83.9722 49.4775L81.0628 61.799C80.9632 62.1048 80.5148 62.0456 80.4849 61.7299L79.8971 54.9428C79.8771 54.6665 79.5782 54.5087 79.3291 54.6271L77.3862 55.584C76.9877 55.6629 76.5991 55.367 76.5891 54.9625L76.0013 46.3404C75.9813 46.0149 76.2005 45.7189 76.5194 45.6203L79.0701 44.032C79.5583 43.884 80.0565 44.2688 80.0166 44.7818L79.8273 48.7771C79.8074 49.2013 80.2159 49.517 80.6244 49.3887ZM73.7509 54.6014C73.9372 54.3045 74.3981 54.3138 74.555 54.6292L78.9776 61.7273C79.0756 61.9129 78.8305 62.0892 78.6638 61.95L75.1532 59.018C75.0061 58.8974 74.7903 58.953 74.7217 59.12L74.2216 60.4376C74.0647 60.6603 73.7313 60.6881 73.5352 60.5025L69.1518 56.6983C68.9851 56.5499 68.9557 56.3086 69.0636 56.1231L69.5637 54.2395C69.7402 53.9519 70.1619 53.9148 70.3874 54.1746L72.1917 56.1416C72.3878 56.355 72.7311 56.3179 72.8781 56.0767L73.7509 54.6014Z" fill="#FF0000"/>
</svg>
