<svg width="18" height="19" viewBox="0 0 18 19" fill="none" xmlns="http://www.w3.org/2000/svg">
<path d="M9.01987 18.53C6.68987 18.53 4.35987 18.16 2.14987 17.42C1.30987 17.13 0.669869 16.54 0.389869 15.77C0.0998691 15 0.199869 14.15 0.659869 13.39L1.80987 11.48C2.04987 11.08 2.26987 10.28 2.26987 9.81004V6.92004C2.26987 3.20004 5.29987 0.170044 9.01987 0.170044C12.7399 0.170044 15.7699 3.20004 15.7699 6.92004V9.81004C15.7699 10.27 15.9899 11.08 16.2299 11.49L17.3699 13.39C17.7999 14.11 17.8799 14.98 17.5899 15.77C17.2999 16.56 16.6699 17.16 15.8799 17.42C13.6799 18.16 11.3499 18.53 9.01987 18.53ZM9.01987 1.67004C6.12987 1.67004 3.76987 4.02004 3.76987 6.92004V9.81004C3.76987 10.54 3.46987 11.62 3.09987 12.25L1.94987 14.16C1.72987 14.53 1.66987 14.92 1.79987 15.25C1.91987 15.59 2.21987 15.85 2.62987 15.99C6.80987 17.39 11.2399 17.39 15.4199 15.99C15.7799 15.87 16.0599 15.6 16.1899 15.24C16.3199 14.88 16.2899 14.49 16.0899 14.16L14.9399 12.25C14.5599 11.6 14.2699 10.53 14.2699 9.80004V6.92004C14.2699 4.02004 11.9199 1.67004 9.01987 1.67004Z" fill="#666666"/>
</svg>
