<svg width="34" height="34" viewBox="0 0 34 34" fill="none" xmlns="http://www.w3.org/2000/svg">
<path d="M17 1.06592C8.21311 1.06592 1 8.27903 1 17.1971C1 25.9839 8.21311 33.0659 17 33.0659C25.918 33.0659 33 25.9839 33 17.1971C33 8.27903 25.918 1.06592 17 1.06592ZM17 31.8856C8.86885 31.8856 2.18032 25.3282 2.18032 17.1971C2.18032 8.93477 8.86885 2.37739 17 2.37739C25.2623 2.37739 31.8197 8.93477 31.8197 17.1971C31.8197 25.3282 25.2623 31.8856 17 31.8856ZM12.0164 15.7544C10.5738 15.7544 9.52459 14.5741 9.52459 13.2626C9.52459 11.82 10.7049 10.902 12.0164 10.902C13.459 10.902 14.5082 11.9512 14.5082 13.2626C14.5082 14.5741 13.3279 15.7544 12.0164 15.7544ZM24.6066 12.8692C24.6066 14.3118 23.5574 15.2299 22.2459 15.2299C20.8033 15.2299 19.6229 14.1807 19.6229 12.8692C19.6229 11.4266 20.8033 10.5085 22.1148 10.5085C23.5574 10.3774 24.6066 11.4266 24.6066 12.8692ZM10.1803 22.1807H23.8197V24.0167H10.1803V22.1807Z" fill="#FAB301" stroke="#FAB301" stroke-width="1.6"/>
</svg>
