<svg width="18" height="22" viewBox="0 0 18 22" fill="none" xmlns="http://www.w3.org/2000/svg">
<path d="M9.49347 12.817L9.50114 12.7818C9.64943 12.1816 9.83608 11.4333 9.69034 10.7553C9.59318 10.2204 9.19176 10.012 8.84915 9.99693C8.44517 9.97935 8.08466 10.2054 7.99517 10.5343C7.82642 11.137 7.97727 11.9607 8.25341 13.0103C7.90568 13.8239 7.35085 15.0067 6.94432 15.7098C6.1875 16.094 5.17244 16.6867 5.02159 17.435C4.99091 17.5731 5.0267 17.7489 5.11108 17.9071C5.20568 18.0829 5.35653 18.2185 5.53295 18.2838C5.60966 18.3114 5.7017 18.334 5.80909 18.334C6.25909 18.334 6.98778 17.9774 7.95937 16.3401C8.10767 16.2924 8.26108 16.2422 8.40938 16.192C9.10483 15.9609 9.82585 15.7199 10.4778 15.6119C11.1989 15.9911 12.0196 16.2347 12.577 16.2347C13.1293 16.2347 13.3466 15.9132 13.4284 15.7199C13.5716 15.3809 13.5026 14.954 13.2699 14.7254C12.9324 14.399 12.1116 14.3136 10.8332 14.4693C10.2043 14.0926 9.79261 13.5804 9.49347 12.817ZM6.68864 16.6314C6.33324 17.1387 6.06477 17.3923 5.91903 17.5028C6.09034 17.1939 6.42528 16.8675 6.68864 16.6314ZM8.92841 10.7176C9.06136 10.9411 9.04347 11.6166 8.94119 11.9581C8.81591 11.4584 8.79801 10.7503 8.87216 10.6674C8.89261 10.6699 8.91051 10.685 8.92841 10.7176ZM8.8875 13.7436C9.16108 14.2081 9.50625 14.6074 9.88722 14.9037C9.33494 15.0268 8.83125 15.2302 8.38125 15.411C8.27386 15.4537 8.16903 15.4964 8.06676 15.5366C8.40682 14.9314 8.69063 14.2458 8.8875 13.7436ZM12.8659 15.3884C12.8685 15.3934 12.871 15.4009 12.8557 15.411H12.8506L12.8455 15.4185C12.825 15.4311 12.6153 15.5516 11.7128 15.2026C12.7509 15.1549 12.8634 15.3859 12.8659 15.3884ZM17.7597 5.64007L12.2574 0.236049C12.104 0.0853795 11.8969 0 11.6795 0H0.818182C0.365625 0 0 0.359096 0 0.803571V21.6964C0 22.1409 0.365625 22.5 0.818182 22.5H17.1818C17.6344 22.5 18 22.1409 18 21.6964V6.2101C18 5.99665 17.9131 5.79074 17.7597 5.64007ZM16.1131 6.57924H11.3011V1.85324L16.1131 6.57924ZM16.1591 20.692H1.84091V1.80804H9.5625V7.23214C9.5625 7.51186 9.67564 7.78013 9.87703 7.97792C10.0784 8.17571 10.3516 8.28683 10.6364 8.28683H16.1591V20.692Z" fill="black"/>
</svg>
