<svg width="40" height="40" viewBox="0 0 40 40" fill="none" xmlns="http://www.w3.org/2000/svg">
<path d="M21.6043 23.7731C21.4181 23.7173 21.2213 23.7059 21.0299 23.7397C20.8384 23.7735 20.6575 23.8517 20.5016 23.9679C20.3457 24.0841 20.2191 24.2352 20.1321 24.409C20.045 24.5829 19.9997 24.7747 20 24.9691V24.9979C20.0018 25.267 20.0898 25.5284 20.2511 25.7439C20.4123 25.9594 20.6384 26.1175 20.8961 26.195C21.5103 26.387 22.0471 26.77 22.4286 27.2883C22.81 27.8065 23.0161 28.433 23.0168 29.0764V31.5218C23.0168 31.8527 23.1483 32.17 23.3823 32.404C23.6163 32.638 23.9336 32.7694 24.2645 32.7694H24.292C24.6229 32.7694 24.9403 32.638 25.1743 32.404C25.4083 32.17 25.5397 31.8527 25.5397 31.5218V29.0764C25.5383 27.8875 25.1551 26.7305 24.4466 25.7758C23.7381 24.821 22.7418 24.119 21.6043 23.7731Z" fill="#FAB301"/>
<path d="M32.6621 36.3053H30.5973V29.3361C30.596 27.4204 30.0759 25.5408 29.0922 23.897C28.1084 22.2532 26.6978 20.9065 25.0102 20C26.6978 19.0935 28.1084 17.7468 29.0922 16.103C30.0759 14.4592 30.596 12.5796 30.5973 10.6639V3.69474H32.6621C32.9963 3.69421 33.3166 3.56108 33.5527 3.32457C33.7889 3.08807 33.9215 2.76752 33.9215 2.43331C33.9215 2.0991 33.7889 1.77855 33.5527 1.54204C33.3166 1.30553 32.9963 1.1724 32.6621 1.17188H7.33855C7.00434 1.1724 6.684 1.30553 6.44787 1.54204C6.21173 1.77855 6.0791 2.0991 6.0791 2.43331C6.0791 2.76752 6.21173 3.08807 6.44787 3.32457C6.684 3.56108 7.00434 3.69421 7.33855 3.69474H9.40277V10.6639C9.40417 12.5796 9.92435 14.4591 10.9081 16.1029C11.8918 17.7467 13.3023 19.0934 14.9899 20C13.3023 20.9066 11.8918 22.2533 10.9081 23.8971C9.92434 25.5409 9.40416 27.4204 9.40277 29.3361V36.3053H7.33855C7.00434 36.3058 6.684 36.4389 6.44787 36.6754C6.21173 36.9119 6.0791 37.2325 6.0791 37.5667C6.0791 37.9009 6.21173 38.2215 6.44787 38.458C6.684 38.6945 7.00434 38.8276 7.33855 38.8281H32.6621C32.9963 38.8276 33.3166 38.6945 33.5527 38.458C33.7889 38.2215 33.9215 37.9009 33.9215 37.5667C33.9215 37.2325 33.7889 36.9119 33.5527 36.6754C33.3166 36.4389 32.9963 36.3058 32.6621 36.3053ZM11.9256 10.6639V3.69474H28.0745V10.6639C28.0745 11.7243 27.8656 12.7742 27.4598 13.7539C27.0541 14.7335 26.4593 15.6236 25.7095 16.3734C24.9597 17.1232 24.0696 17.7179 23.09 18.1237C22.1104 18.5295 21.0604 18.7383 20.0001 18.7383C18.9397 18.7383 17.8897 18.5295 16.9101 18.1237C15.9305 17.7179 15.0404 17.1232 14.2906 16.3734C13.5408 15.6236 12.946 14.7335 12.5403 13.7539C12.1345 12.7742 11.9256 11.7243 11.9256 10.6639H11.9256ZM28.0745 36.3053H11.9256V29.3361C11.9256 27.1946 12.7763 25.1409 14.2906 23.6266C15.8048 22.1124 17.8586 21.2617 20 21.2617C22.1415 21.2617 24.1953 22.1124 25.7095 23.6266C27.2238 25.1409 28.0745 27.1946 28.0745 29.3361V36.3053Z" fill="#FAB301"/>
<path d="M25.579 10.8349V7.09345C25.5609 7.08538 25.5432 7.07782 25.5256 7.07024C25.202 6.94281 24.8449 6.92893 24.5124 7.03085C24.18 7.13277 23.892 7.34447 23.6955 7.63133C23.6527 7.71495 23.5927 7.78855 23.5194 7.84729C23.3357 7.96584 23.1001 7.83316 22.9159 7.71609C22.0703 7.20415 21.0866 6.96731 20.1007 7.03826C19.1148 7.10921 18.1751 7.48445 17.4115 8.11218C16.4103 8.20076 15.4014 8.13559 14.4199 7.91893V10.8349C14.4199 12.3147 15.0078 13.7338 16.0541 14.7802C17.1005 15.8266 18.5197 16.4144 19.9995 16.4144C21.4793 16.4144 22.8985 15.8266 23.9448 14.7802C24.9912 13.7338 25.579 12.3147 25.579 10.8349Z" fill="#FAB301"/>
</svg>
