<svg width="24" height="19" viewBox="0 0 24 19" fill="none" xmlns="http://www.w3.org/2000/svg">
<path d="M20.4206 17.5556H3.86508C2.55888 17.5556 1.5 16.4967 1.5 15.1905V3.36508C1.5 2.05888 2.55888 1 3.86508 1H12.1429H20.4206C21.7269 1 22.7857 2.05888 22.7857 3.36508V15.1905C22.7857 16.4967 21.7269 17.5556 20.4206 17.5556Z" stroke="#666666" stroke-width="1.5"/>
<path d="M22.7857 11.6429H18.0555C16.7493 11.6429 15.6904 10.5841 15.6904 9.27784V8.0953C15.6904 6.78911 16.7493 5.73022 18.0555 5.73022H22.7857" stroke="#666666" stroke-width="1.5"/>
<path d="M18.6469 9.27775C18.3204 9.27775 18.0557 9.01298 18.0557 8.68648C18.0557 8.35999 18.3204 8.09521 18.6469 8.09521C18.9734 8.09521 19.2382 8.35999 19.2382 8.68648C19.2382 9.01298 18.9734 9.27775 18.6469 9.27775Z" fill="#666666" stroke="#666666" stroke-width="1.5" stroke-linecap="round" stroke-linejoin="round"/>
</svg>
