<svg width="20" height="20" viewBox="0 0 20 20" fill="none" xmlns="http://www.w3.org/2000/svg">
<g opacity="0.6">
<path d="M18.0833 19.1668C17.8333 19.1668 17.5 19.0002 17.3333 18.7502C15.75 16.1668 13 14.5835 10 14.5835C7 14.5835 4.25 16.1668 2.66667 18.7502C2.41667 19.1668 1.91667 19.2502 1.5 19.0002C1.08333 18.7502 1 18.2502 1.25 17.8335C3.08333 14.7502 6.41667 12.8335 10 12.8335C13.5833 12.8335 16.9167 14.6668 18.75 17.8335C19 18.2502 18.8333 18.7502 18.5 19.0002C18.3333 19.1668 18.1667 19.1668 18.0833 19.1668Z" fill="#496376"/>
<path d="M10 10.8335C7.25 10.8335 5 8.5835 5 5.8335C5 3.0835 7.25 0.833496 10 0.833496C12.75 0.833496 15 3.0835 15 5.8335C15 8.5835 12.75 10.8335 10 10.8335ZM10 2.50016C8.16667 2.50016 6.66667 4.00016 6.66667 5.8335C6.66667 7.66683 8.16667 9.16683 10 9.16683C11.8333 9.16683 13.3333 7.66683 13.3333 5.8335C13.3333 4.00016 11.8333 2.50016 10 2.50016Z" fill="#496376"/>
</g>
</svg>
