<svg width="16" height="16" viewBox="0 0 16 16" fill="none" xmlns="http://www.w3.org/2000/svg">
<path fill-rule="evenodd" clip-rule="evenodd" d="M7.23774 5.55893C7.58314 5.09345 7.707 4.60289 7.31635 4.16986C6.43972 2.94321 5.85016 2.18465 5.48036 1.81935C4.77732 1.12486 3.6208 1.2188 3.01192 1.81876C2.68488 2.141 2.57417 2.25166 2.23837 2.59273C0.367938 4.46417 1.50863 8.42033 4.54099 11.4557C7.57266 14.4903 11.5284 15.6316 13.4028 13.7562C13.7127 13.4575 13.975 13.195 14.1819 12.9763C14.7786 12.3456 14.8692 11.2401 14.178 10.5219C13.8236 10.1537 13.1003 9.59263 11.822 8.67828C11.4305 8.32821 10.9663 8.40408 10.5408 8.68329C10.336 8.81759 10.1871 8.95345 9.90576 9.23503L9.39493 9.74614C9.32765 9.81346 8.41405 9.35593 7.5272 8.46821C6.63987 7.58001 6.18266 6.66637 6.24963 6.5994L6.76081 6.08794C6.85006 5.9986 6.89273 5.95535 6.94745 5.89784C7.06145 5.77802 7.15585 5.66928 7.23774 5.55893ZM10.3372 10.689L10.8481 10.1777C11.003 10.0228 11.1033 9.92748 11.1849 9.86179C12.3047 10.6659 12.9532 11.1716 13.2181 11.4468C13.3771 11.612 13.3524 11.9136 13.2142 12.0597C13.0228 12.2619 12.7743 12.5106 12.4692 12.8049C11.2572 14.0174 8.06399 13.0961 5.48348 10.5131C2.90216 7.9292 1.98132 4.73552 3.18419 3.53198C3.51863 3.19231 3.62459 3.0864 3.94696 2.76876C4.06783 2.64966 4.39707 2.62292 4.54411 2.76817C4.82882 3.04942 5.35695 3.72565 6.13387 4.80788C6.09365 4.85781 6.04341 4.91424 5.98228 4.97849C5.93741 5.02564 5.90003 5.06353 5.81831 5.14534L5.30763 5.6563C4.43887 6.52499 5.17874 8.00347 6.58471 9.41082C7.98971 10.8172 9.46874 11.5579 10.3372 10.689Z" fill="#002540" fill-opacity="0.7"/>
</svg>
