<svg width="24" height="26" viewBox="0 0 24 26" fill="none" xmlns="http://www.w3.org/2000/svg">
<path d="M21.41 13.58L12.41 4.58C12.05 4.22 11.55 4 11 4H4C2.9 4 2 4.9 2 6V13C2 13.55 2.22 14.05 2.59 14.42L11.59 23.42C11.95 23.78 12.45 24 13 24C13.55 24 14.05 23.78 14.41 23.41L21.41 16.41C21.78 16.05 22 15.55 22 15C22 14.45 21.77 13.94 21.41 13.58ZM13 22.01L4 13V6H11V5.99L20 14.99L13 22.01Z" fill="#496376"/>
<path d="M6.5 10C7.32843 10 8 9.32843 8 8.5C8 7.67157 7.32843 7 6.5 7C5.67157 7 5 7.67157 5 8.5C5 9.32843 5.67157 10 6.5 10Z" fill="#496376"/>
</svg>
