<svg width="56" height="56" viewBox="0 0 56 56" fill="none" xmlns="http://www.w3.org/2000/svg">
<path d="M44.1467 14.0227C43.68 12.646 42.3733 11.666 40.8333 11.666H15.1667C13.6267 11.666 12.3433 12.646 11.8533 14.0227L7.25667 27.2527C7.09333 27.7427 7 28.256 7 28.7927V45.4994C7 47.436 8.56333 48.9994 10.5 48.9994C12.4367 48.9994 14 47.436 14 45.4994V44.3327H42V45.4994C42 47.4127 43.5633 48.9994 45.5 48.9994C47.4133 48.9994 49 47.436 49 45.4994V28.7927C49 28.2794 48.9067 27.7427 48.7433 27.2527L44.1467 14.0227ZM15.1667 37.3327C13.23 37.3327 11.6667 35.7694 11.6667 33.8327C11.6667 31.896 13.23 30.3327 15.1667 30.3327C17.1033 30.3327 18.6667 31.896 18.6667 33.8327C18.6667 35.7694 17.1033 37.3327 15.1667 37.3327ZM40.8333 37.3327C38.8967 37.3327 37.3333 35.7694 37.3333 33.8327C37.3333 31.896 38.8967 30.3327 40.8333 30.3327C42.77 30.3327 44.3333 31.896 44.3333 33.8327C44.3333 35.7694 42.77 37.3327 40.8333 37.3327ZM11.6667 25.666L14.63 16.7527C14.9567 15.8193 15.8433 15.166 16.8467 15.166H39.1533C40.1567 15.166 41.0433 15.8193 41.37 16.7527L44.3333 25.666H11.6667Z" fill="#800080"/>
</svg>
