<svg width="104" height="104" viewBox="0 0 104 104" fill="none" xmlns="http://www.w3.org/2000/svg">
<path d="M88.5625 21.9375H15.4375C12.2687 21.9375 9.75 19.4187 9.75 16.25C9.75 13.0812 12.2687 10.5625 15.4375 10.5625H88.5625C91.7312 10.5625 94.25 13.0812 94.25 16.25C94.25 19.4187 91.7312 21.9375 88.5625 21.9375Z" fill="#496376"/>
<path d="M80.4375 16.25H23.5625V91L31.6875 99.125L39.8125 91L47.9375 99.125L56.0625 91L64.1875 99.125L72.3125 91L80.4375 99.125V16.25Z" fill="white"/>
<path d="M23.5625 93.4375C22.1812 93.4375 21.125 92.3812 21.125 91V16.25C21.125 14.8687 22.1812 13.8125 23.5625 13.8125C24.9438 13.8125 26 14.8687 26 16.25V91C26 92.3812 24.9438 93.4375 23.5625 93.4375ZM80.4375 101.562C79.7875 101.562 79.2188 101.319 78.7313 100.831L72.3125 94.4125L65.8937 100.831C64.9187 101.806 63.375 101.806 62.4813 100.831L56.0625 94.4125L49.6437 100.831C48.6687 101.806 47.125 101.806 46.2313 100.831L39.8125 94.4125L33.3937 100.831C32.4187 101.806 30.875 101.806 29.9813 100.831C29.0063 99.8562 29.0063 98.3125 29.9813 97.4188L38.1063 89.2938C39.0813 88.3187 40.625 88.3187 41.5187 89.2938L47.9375 95.7125L54.3563 89.2938C55.3313 88.3187 56.875 88.3187 57.7687 89.2938L64.1875 95.7125L70.6063 89.2938C71.5813 88.3187 73.125 88.3187 74.0187 89.2938L78 93.275V16.25C78 14.8687 79.0563 13.8125 80.4375 13.8125C81.8187 13.8125 82.875 14.8687 82.875 16.25V99.125C82.875 100.1 82.3062 100.994 81.3312 101.4C81.0875 101.481 80.7625 101.562 80.4375 101.562Z" fill="#496376"/>
<path d="M68.25 34.125H35.75C34.3687 34.125 33.3125 33.0688 33.3125 31.6875C33.3125 30.3062 34.3687 29.25 35.75 29.25H68.25C69.6312 29.25 70.6875 30.3062 70.6875 31.6875C70.6875 33.0688 69.6312 34.125 68.25 34.125ZM68.25 46.3125H35.75C34.3687 46.3125 33.3125 45.2563 33.3125 43.875C33.3125 42.4937 34.3687 41.4375 35.75 41.4375H68.25C69.6312 41.4375 70.6875 42.4937 70.6875 43.875C70.6875 45.2563 69.6312 46.3125 68.25 46.3125ZM68.25 58.5H35.75C34.3687 58.5 33.3125 57.4438 33.3125 56.0625C33.3125 54.6812 34.3687 53.625 35.75 53.625H68.25C69.6312 53.625 70.6875 54.6812 70.6875 56.0625C70.6875 57.4438 69.6312 58.5 68.25 58.5ZM60.125 70.6875H35.75C34.3687 70.6875 33.3125 69.6312 33.3125 68.25C33.3125 66.8688 34.3687 65.8125 35.75 65.8125H60.125C61.5063 65.8125 62.5625 66.8688 62.5625 68.25C62.5625 69.6312 61.5063 70.6875 60.125 70.6875ZM68.25 70.6875C67.6 70.6875 66.95 70.4437 66.5438 69.9562C66.4625 69.875 66.3 69.7125 66.2188 69.55C66.1375 69.3875 66.0562 69.3062 65.975 69.1437C65.8937 68.9812 65.8937 68.8187 65.8125 68.6562C65.8125 68.4938 65.7313 68.3313 65.7313 68.1688C65.7313 67.5188 65.975 66.8688 66.4625 66.4625C66.5438 66.3813 66.7062 66.2188 66.7875 66.1375C66.95 66.0563 67.0312 65.975 67.1937 65.8937C67.3562 65.8125 67.5188 65.8125 67.6813 65.7313C68.0063 65.65 68.3312 65.65 68.6562 65.7313C68.8187 65.7313 68.9812 65.8125 69.1437 65.8937C69.3062 65.975 69.4688 66.0563 69.55 66.1375C69.7125 66.2188 69.7938 66.3 69.875 66.4625C70.3625 66.95 70.6063 67.5188 70.6063 68.1688C70.6063 68.3313 70.6063 68.4938 70.525 68.6562C70.525 68.8187 70.4437 68.9812 70.3625 69.1437C70.2812 69.3062 70.2 69.4688 70.1188 69.55C70.0375 69.7125 69.9563 69.7937 69.7938 69.9562C69.55 70.4437 68.9 70.6875 68.25 70.6875Z" fill="#0DB85C"/>
<path d="M88.5625 24.375H80.275C78.8938 24.375 78.65 23.3188 78.65 21.9375C78.65 20.5562 78.8938 19.5 80.275 19.5H88.5625C90.35 19.5 91.8125 18.0375 91.8125 16.25C91.8125 14.4625 90.35 13 88.5625 13H15.4375C13.65 13 12.1875 14.4625 12.1875 16.25C12.1875 18.0375 13.65 19.5 15.4375 19.5H23.4C24.7812 19.5 25.025 20.5562 25.025 21.9375C25.025 23.3188 24.7812 24.375 23.4 24.375H15.4375C10.9688 24.375 7.3125 20.7188 7.3125 16.25C7.3125 11.7812 10.9688 8.125 15.4375 8.125H88.5625C93.0312 8.125 96.6875 11.7812 96.6875 16.25C96.6875 20.7188 93.0312 24.375 88.5625 24.375Z" fill="#496376"/>
</svg>
