<svg width="20" height="20" viewBox="0 0 20 20" fill="none" xmlns="http://www.w3.org/2000/svg">
<path d="M16.0081 0.821045C15.7914 0.821358 15.575 0.905958 15.4116 1.07414C15.0917 1.40368 15.0985 1.92994 15.4274 2.2509C16.0423 2.86615 16.6575 3.48111 17.2731 4.09578C17.4394 4.26199 17.5228 4.47415 17.5229 4.68579C17.523 4.89744 17.4393 5.10869 17.2731 5.27498C16.6576 5.89027 16.0425 6.50593 15.4274 7.1215C15.092 7.44914 15.0926 7.98868 15.4289 8.31535C15.7585 8.63531 16.2848 8.62847 16.6057 8.29991L18.4522 6.4534C19.4217 5.48371 19.4214 3.88664 18.4514 2.91743L16.6057 1.07172C16.4419 0.904018 16.2251 0.82076 16.0084 0.821073L16.0081 0.821045ZM8.34539 3.85164C5.36372 3.85164 2.92871 6.28664 2.92871 9.26831H2.92556C2.92083 9.72764 3.28742 10.1046 3.74669 10.1114C4.21553 10.1183 4.59773 9.73716 4.59224 9.26831C4.59224 7.18737 6.26373 5.51912 8.34468 5.51912V5.51831H15.0122C15.4714 5.52366 15.8485 5.15646 15.8552 4.69718C15.8615 4.22835 15.481 3.84615 15.0122 3.85164H8.34539ZM16.2254 9.89005C15.7662 9.89683 15.3989 10.2738 15.4043 10.7332H15.4074C15.4074 12.8141 13.736 14.4823 11.655 14.4823C9.43252 14.4832 7.21002 14.4832 4.98753 14.4832C4.51868 14.4776 4.13757 14.8599 4.14442 15.3287C4.15072 15.788 4.52824 16.1552 4.98753 16.1498C7.21002 16.1501 9.43252 16.1496 11.655 16.149V16.1498C14.6367 16.1498 17.0717 13.7148 17.0717 10.7332C17.078 10.2643 16.695 9.8832 16.2261 9.89005H16.2254ZM3.99154 11.4493C3.77482 11.449 3.55803 11.5322 3.3942 11.7L1.5485 13.5457C0.578535 14.5149 0.578204 16.1119 1.54768 17.0816C2.16298 17.6971 2.77865 18.3122 3.3942 18.9273C3.71517 19.256 4.24142 19.2636 4.57096 18.9436C4.90732 18.6169 4.908 18.0766 4.57254 17.749L2.72683 15.9032C2.56057 15.737 2.47687 15.5249 2.47699 15.3132C2.47712 15.1016 2.56046 14.8903 2.72683 14.724C3.34276 14.1095 3.9575 13.4938 4.57254 12.8783C4.90112 12.5574 4.90795 12.0311 4.58828 11.7016C4.42494 11.5334 4.20849 11.4496 3.99176 11.4493L3.99154 11.4493Z" fill="#800080"/>
</svg>
