<svg width="16" height="20" viewBox="0 0 16 20" fill="none" xmlns="http://www.w3.org/2000/svg">
<path d="M8.44037 0.806266C8.19687 0.564578 7.80319 0.564578 7.55962 0.806266C7.27125 1.09252 0.5 7.86377 0.5 11.875C0.5 16.0108 3.86456 19.375 8 19.375C12.1354 19.375 15.5 16.0108 15.5 11.875C15.5 7.86377 8.72875 1.09252 8.44037 0.806266ZM8 18.125C4.55363 18.125 1.75 15.3211 1.75 11.875C1.75 9.18277 5.91537 4.3042 8 2.14114C10.0846 4.3042 14.25 9.18277 14.25 11.875C14.25 15.3211 11.4464 18.125 8 18.125Z" fill="#FAB301"/>
</svg>
