<svg width="24" height="24" viewBox="0 0 24 24" fill="none" xmlns="http://www.w3.org/2000/svg">
<path d="M22.0876 3.06753C22.0912 3.02511 22.0912 2.98246 22.0876 2.94003C22.0912 2.89761 22.0912 2.85496 22.0876 2.81253C22.0721 2.76567 22.052 2.72045 22.0276 2.67753C22.017 2.64675 22.0045 2.61669 21.9901 2.58753C21.9648 2.55793 21.9372 2.53035 21.9076 2.50503C21.8601 2.46089 21.8072 2.42307 21.7501 2.39253L21.6601 2.34753C21.6259 2.31138 21.5882 2.27872 21.5476 2.25003C21.4927 2.24397 21.4374 2.24397 21.3826 2.25003H21.2926C21.2284 2.2569 21.1654 2.27203 21.1051 2.29503H21.0451L1.95007 10.65C1.80564 10.7123 1.68444 10.8184 1.60363 10.9534C1.52282 11.0883 1.48648 11.2453 1.49974 11.402C1.51301 11.5587 1.57522 11.7073 1.67757 11.8267C1.77991 11.9462 1.91722 12.0304 2.07007 12.0675L10.1176 14.04L12.1276 21.9375C12.1658 22.0881 12.2498 22.2231 12.368 22.3238C12.4863 22.4246 12.6328 22.4862 12.7876 22.5H12.8551C12.9993 22.4997 13.1405 22.4578 13.2615 22.3793C13.3826 22.3009 13.4784 22.1891 13.5376 22.0575L22.0201 3.30753C22.0219 3.27756 22.0219 3.24751 22.0201 3.21753C22.048 3.17016 22.0706 3.11986 22.0876 3.06753ZM17.9176 5.31753L15.6676 7.49253L10.5001 12.585L4.57507 11.13L17.9176 5.31753ZM13.0576 19.5L11.5576 13.6575L18.9901 6.35253L13.0576 19.5Z" fill="white"/>
</svg>
