<svg width="239" height="241" viewBox="0 0 239 241" fill="none" xmlns="http://www.w3.org/2000/svg">
<path fill-rule="evenodd" clip-rule="evenodd" d="M0.810134 21.1919C0.810134 22.1672 1.54162 22.8987 2.51694 22.8987C3.49225 22.8987 4.22374 22.1672 4.22374 21.1919V8.65593C4.22374 5.72998 6.66203 3.41361 9.46607 3.41361H28.3628C29.3381 3.41361 30.0696 2.68212 30.0696 1.7068C30.0696 0.731487 29.3381 0 28.3628 0H9.46607C4.7114 0 0.810134 3.90127 0.810134 8.65593V21.1919ZM238.703 219.808C238.703 218.833 237.971 218.101 236.996 218.101C236.021 218.101 235.289 218.833 235.289 219.808V232.344C235.289 235.27 232.851 237.586 230.047 237.586H211.15C210.175 237.586 209.443 238.318 209.443 239.293C209.443 240.269 210.175 241 211.15 241H230.047C234.801 241 238.703 237.099 238.703 232.344V219.808ZM209.443 1.7068C209.443 0.731486 210.175 0 211.15 0H230.047C234.801 0 238.703 3.90127 238.703 8.65593L238.703 21.1919C238.703 22.1672 237.971 22.8987 236.996 22.8987C236.02 22.8987 235.289 22.1672 235.289 21.1919V8.65593C235.289 5.8519 232.973 3.41361 230.047 3.41361L211.15 3.41361C210.175 3.41361 209.443 2.68212 209.443 1.7068ZM28.3627 241C29.3381 241 30.0695 240.269 30.0695 239.293C30.0695 238.318 29.3381 237.586 28.3627 237.586H9.46599C6.54004 237.586 4.22367 235.148 4.22367 232.344L4.22367 219.808C4.22367 218.833 3.49218 218.101 2.51687 218.101C1.54155 218.101 0.810061 218.833 0.810061 219.808L0.810059 232.344C0.810059 237.099 4.71132 241 9.46599 241H28.3627Z" fill="white"/>
</svg>
