<svg width="32" height="32" viewBox="0 0 32 32" fill="none" xmlns="http://www.w3.org/2000/svg">
<path d="M28.4998 2.10004L2.60979 14.05C1.81979 14.41 1.78979 15.51 2.54979 15.92L7.06979 18.35C7.05979 18.36 7.06979 18.36 7.06979 18.37L11.0698 28.37C11.3478 29.075 12.2888 29.222 12.7698 28.64L16.9198 23.66L24.7398 27.87C25.3498 28.213 26.1808 27.848 26.2898 27.11L29.9898 3.21004C30.1148 2.37004 29.2528 1.74904 28.4998 2.10004ZM19.9098 8.27004L8.14979 16.67L5.17979 15.07L19.9098 8.27004ZM12.3098 26.07C9.37379 18.743 9.98379 20.262 9.21979 18.36C10.4458 17.478 8.24879 19.049 25.4298 6.78004C25.1218 7.26804 16.4998 20.929 16.1898 21.41C14.8408 23.024 15.6818 22.014 12.3098 26.07ZM24.5198 25.48L18.1498 22.05L27.2898 7.59004L24.5198 25.48Z" fill="white"/>
</svg>
