<svg width="33" height="32" viewBox="0 0 33 32" fill="none" xmlns="http://www.w3.org/2000/svg">
<path fill-rule="evenodd" clip-rule="evenodd" d="M23.1666 22.6667V25.3333H24.4999C28.1818 25.3333 31.1666 22.3486 31.1666 18.6667C31.1666 15.3133 28.6907 12.5382 25.4672 12.0697C24.3333 8.14083 20.7114 5.33334 16.4999 5.33334C13.3712 5.33334 10.5119 6.88677 8.79311 9.40037C4.85596 9.91128 1.83325 13.2784 1.83325 17.3333C1.83325 21.7516 5.41497 25.3333 9.83325 25.3333V22.6667C6.88773 22.6667 4.49992 20.2789 4.49992 17.3333C4.49992 14.4673 6.76571 12.1162 9.61946 12.0042L10.3541 11.9754L10.7218 11.3386C11.9056 9.28857 14.0898 8 16.4999 8C19.7681 8 22.5404 10.3684 23.0745 13.5549L23.2649 14.6909L24.4166 14.6675C24.4582 14.6668 24.4582 14.6668 24.4999 14.6667C26.7091 14.6667 28.4999 16.4575 28.4999 18.6667C28.4999 20.8758 26.7091 22.6667 24.4999 22.6667H23.1666ZM17.8333 28V19.219L20.8904 22.2761L22.7761 20.3905L16.4999 14.1144L10.2238 20.3905L12.1094 22.2761L15.1666 19.219V28H17.8333Z" fill="#002540" fill-opacity="0.7"/>
</svg>
