<svg width="24" height="24" viewBox="0 0 24 24" fill="none" xmlns="http://www.w3.org/2000/svg">
<path d="M20.5715 10.7147H7.17867V4.7147C7.17867 3.88703 7.85099 3.2147 8.67867 3.2147H15.3215C16.1492 3.2147 16.8215 3.88703 16.8215 4.7147V6.53613C16.8215 6.65399 16.918 6.75042 17.0358 6.75042H18.5358C18.6537 6.75042 18.7501 6.65399 18.7501 6.53613V4.7147C18.7501 2.82095 17.2153 1.28613 15.3215 1.28613H8.67867C6.78492 1.28613 5.2501 2.82095 5.2501 4.7147V10.7147H3.42867C2.95456 10.7147 2.57153 11.0977 2.57153 11.5718V21.8576C2.57153 22.3317 2.95456 22.7147 3.42867 22.7147H20.5715C21.0456 22.7147 21.4287 22.3317 21.4287 21.8576V11.5718C21.4287 11.0977 21.0456 10.7147 20.5715 10.7147ZM19.5001 20.7861H4.5001V12.6433H19.5001V20.7861ZM11.2501 17.0629V18.4826C11.2501 18.6004 11.3465 18.6968 11.4644 18.6968H12.5358C12.6537 18.6968 12.7501 18.6004 12.7501 18.4826V17.0629C12.9712 16.9042 13.1362 16.6794 13.2214 16.4209C13.3067 16.1623 13.3076 15.8835 13.2243 15.6244C13.1409 15.3652 12.9774 15.1393 12.7574 14.979C12.5375 14.8187 12.2723 14.7323 12.0001 14.7323C11.7279 14.7323 11.4627 14.8187 11.2427 14.979C11.0228 15.1393 10.8593 15.3652 10.7759 15.6244C10.6926 15.8835 10.6935 16.1623 10.7787 16.4209C10.864 16.6794 11.029 16.9042 11.2501 17.0629Z" fill="#DA6220"/>
</svg>
