<svg width="16" height="16" viewBox="0 0 16 16" fill="none" xmlns="http://www.w3.org/2000/svg">
<path fill-rule="evenodd" clip-rule="evenodd" d="M8.00002 2.66669C9.81838 2.66669 11.5571 3.62044 13.1775 5.18745C13.7304 5.72205 14.2305 6.29279 14.6707 6.86377C14.9364 7.20831 15.125 7.47935 15.2283 7.64082L15.458 8.00002L15.2283 8.35922C15.125 8.52069 14.9364 8.79173 14.6707 9.13627C14.2305 9.70725 13.7304 10.278 13.1775 10.8126C11.5571 12.3796 9.81838 13.3334 8.00002 13.3334C6.18165 13.3334 4.4429 12.3796 2.82249 10.8126C2.26968 10.278 1.76955 9.70725 1.32929 9.13627C1.06362 8.79173 0.874998 8.52069 0.771725 8.35922L0.541992 8.00002L0.771725 7.64082C0.874998 7.47935 1.06362 7.20831 1.32929 6.86377C1.76955 6.29279 2.26968 5.72205 2.82249 5.18745C4.4429 3.62044 6.18165 2.66669 8.00002 2.66669ZM13.6149 7.67794C13.2118 7.15517 12.7535 6.63216 12.2507 6.14592C10.855 4.79627 9.4034 4.00002 8.00002 4.00002C6.59663 4.00002 5.14501 4.79627 3.74938 6.14592C3.24657 6.63216 2.78828 7.15517 2.38518 7.67794C2.29812 7.79084 2.21767 7.89857 2.14413 8.00002C2.21767 8.10147 2.29812 8.2092 2.38518 8.3221C2.78828 8.84487 3.24657 9.36789 3.74938 9.85412C5.14501 11.2038 6.59663 12 8.00002 12C9.4034 12 10.855 11.2038 12.2507 9.85412C12.7535 9.36789 13.2118 8.84487 13.6149 8.3221C13.7019 8.2092 13.7824 8.10147 13.8559 8.00002C13.7824 7.89857 13.7019 7.79084 13.6149 7.67794ZM5.33335 8.00002C5.33335 9.47278 6.52725 10.6667 8.00001 10.6667C9.47277 10.6667 10.6667 9.47278 10.6667 8.00002C10.6667 6.52726 9.47277 5.33335 8.00001 5.33335C6.52725 5.33335 5.33335 6.52726 5.33335 8.00002ZM9.33335 8.00002C9.33335 8.7364 8.73639 9.33335 8.00001 9.33335C7.26363 9.33335 6.66668 8.7364 6.66668 8.00002C6.66668 7.26364 7.26363 6.66669 8.00001 6.66669C8.73639 6.66669 9.33335 7.26364 9.33335 8.00002Z" fill="#800080"/>
</svg>
