<svg width="59" height="40" viewBox="0 0 59 40" fill="none" xmlns="http://www.w3.org/2000/svg">
<rect x="0.5" y="0.5" width="57.3333" height="39" rx="5.5" fill="white" stroke="#D9D9D9"/>
<path fill-rule="evenodd" clip-rule="evenodd" d="M17.7088 27.0971H14.1749L11.5249 16.9873C11.3991 16.5223 11.1321 16.1111 10.7392 15.9174C9.75885 15.4304 8.67853 15.0429 7.5 14.8474V14.4582H13.1928C13.9785 14.4582 14.5677 15.0429 14.6659 15.7219L16.0409 23.0144L19.573 14.4582H23.0087L17.7088 27.0971ZM24.9729 27.0971H21.6355L24.3837 14.4582H27.7211L24.9729 27.0971ZM32.0389 17.9595C32.1371 17.2788 32.7264 16.8896 33.4139 16.8896C34.4942 16.7919 35.671 16.9873 36.6531 17.4726L37.2424 14.7514C36.2603 14.3621 35.18 14.1667 34.1996 14.1667C30.9603 14.1667 28.6033 15.9174 28.6033 18.3471C28.6033 20.1955 30.2729 21.166 31.4514 21.7507C32.7264 22.3337 33.2175 22.7229 33.1193 23.3059C33.1193 24.1804 32.1371 24.5697 31.1568 24.5697C29.9782 24.5697 28.7997 24.2782 27.7211 23.7912L27.1318 26.5141C28.3104 26.9994 29.5854 27.1948 30.7639 27.1948C34.396 27.2909 36.6531 25.5419 36.6531 22.9167C36.6531 19.6108 32.0389 19.417 32.0389 17.9595ZM48.3333 27.0971L45.6834 14.4582H42.837C42.2477 14.4582 41.6584 14.8474 41.462 15.4304L36.5549 27.0971H39.9906L40.6763 25.2504H44.8977L45.2905 27.0971H48.3333ZM43.328 17.8618L44.3084 22.6252H41.5602L43.328 17.8618Z" fill="#172B85"/>
</svg>
