<svg width="24" height="24" viewBox="0 0 24 24" fill="none" xmlns="http://www.w3.org/2000/svg">
<path d="M12.5285 0.967488C12.2362 0.677463 11.7638 0.677463 11.4715 0.967488C11.1255 1.31099 3 9.43649 3 14.25C3 19.2129 7.03747 23.25 12 23.25C16.9625 23.25 21 19.2129 21 14.25C21 9.43649 12.8745 1.31099 12.5285 0.967488ZM12 21.75C7.86435 21.75 4.5 18.3853 4.5 14.25C4.5 11.0193 9.49845 5.16501 12 2.56934C14.5015 5.16501 19.5 11.0193 19.5 14.25C19.5 18.3853 16.1357 21.75 12 21.75Z" fill="black"/>
<path d="M10.5 18C8.8458 18 7.5 16.6546 7.5 15C7.5 14.5855 7.16415 14.25 6.75 14.25C6.33585 14.25 6 14.5855 6 15C6 17.4815 8.01855 19.5 10.5 19.5C10.9142 19.5 11.25 19.1645 11.25 18.75C11.25 18.3355 10.9142 18 10.5 18Z" fill="black"/>
</svg>
