<svg width="159" height="24" viewBox="0 0 159 24" fill="none" xmlns="http://www.w3.org/2000/svg">
    <path d="M0 19.1735V0.981215H7.43377C9.30798 0.981215 10.9119 1.30829 12.2454 1.96243C13.579 2.61657 14.6062 3.61547 15.3271 4.95912C16.0479 6.28508 16.4083 7.99116 16.4083 10.0773C16.4083 12.1459 16.0479 13.8519 15.3271 15.1956C14.6062 16.5392 13.579 17.5381 12.2454 18.1923C10.9119 18.8464 9.30798 19.1735 7.43377 19.1735H0ZM3.51414 16.2298H7.43377C8.29879 16.2298 9.06469 16.1061 9.73147 15.8586C10.3983 15.6111 10.9569 15.2486 11.4075 14.7713C11.858 14.2762 12.2004 13.6663 12.4347 12.9414C12.6689 12.1989 12.7861 11.3414 12.7861 10.3691V9.81216C12.7861 8.8221 12.6689 7.96464 12.4347 7.23978C12.2004 6.49724 11.858 5.88729 11.4075 5.40994C10.9569 4.91492 10.3983 4.54365 9.73147 4.29613C9.06469 4.04862 8.29879 3.92486 7.43377 3.92486H3.51414V16.2298Z" fill="#800080"/>
    <path d="M19.3694 3.07624V0H22.6673V3.07624H19.3694ZM19.3694 19.1735V5.22431H22.6673V19.1735H19.3694Z" fill="#800080"/>
    <path d="M28.5319 24C27.9012 24 27.3065 23.8762 26.7478 23.6287C26.1892 23.3812 25.7386 23.0099 25.3962 22.5149C25.0538 22.0376 24.8826 21.4453 24.8826 20.7381C24.8826 19.9602 25.1079 19.3503 25.5584 18.9083C26.027 18.4486 26.5406 18.1039 27.0992 17.874C26.6848 17.6619 26.3423 17.379 26.072 17.0254C25.8197 16.6718 25.6936 16.2475 25.6936 15.7525C25.6936 15.0807 25.9459 14.5503 26.4505 14.1613C26.9551 13.7547 27.5318 13.4895 28.1805 13.3657C27.5137 12.9591 27.0001 12.4376 26.6397 11.8011C26.2973 11.1646 26.1261 10.4398 26.1261 9.62652C26.1261 8.65414 26.3604 7.8232 26.8289 7.1337C27.3155 6.42652 28.0183 5.87845 28.9374 5.4895C29.8565 5.10055 30.9648 4.90608 32.2623 4.90608C32.7849 4.90608 33.2895 4.94144 33.7761 5.01215C34.2627 5.08287 34.7042 5.18895 35.1007 5.33039C35.7314 4.95912 36.1639 4.54365 36.3982 4.08398C36.6325 3.60663 36.7586 3.21768 36.7766 2.91713H39.9934C39.9934 3.53591 39.8673 4.08398 39.615 4.56133C39.3807 5.03867 39.0473 5.43646 38.6148 5.7547C38.1823 6.05525 37.6597 6.27624 37.047 6.41768C37.4975 6.80663 37.8399 7.27514 38.0742 7.82321C38.3085 8.37127 38.4256 8.97238 38.4256 9.62652C38.4256 10.5989 38.1913 11.4387 37.7228 12.1459C37.2722 12.853 36.5964 13.4011 35.6954 13.7901C34.8123 14.179 33.722 14.3735 32.4245 14.3735H30.2349C29.8565 14.3735 29.5591 14.453 29.3429 14.6122C29.1447 14.7713 29.0455 14.9923 29.0455 15.2751C29.0455 15.505 29.1356 15.7083 29.3159 15.8851C29.5141 16.0619 29.7844 16.1503 30.1268 16.1503H36.3441C37.4074 16.1503 38.2814 16.495 38.9662 17.1845C39.6691 17.8564 40.0205 18.7227 40.0205 19.7834C40.0205 20.579 39.8042 21.295 39.3717 21.9315C38.9572 22.568 38.3715 23.0718 37.6146 23.4431C36.8577 23.8144 35.9747 24 34.9655 24H28.5319ZM29.7213 21.6663H34.9385C35.2809 21.6663 35.5782 21.6044 35.8305 21.4807C36.1009 21.3746 36.3081 21.2155 36.4523 21.0033C36.6145 20.7912 36.6956 20.5525 36.6956 20.2873C36.6956 19.8276 36.5424 19.4829 36.236 19.253C35.9477 19.0232 35.5872 18.9083 35.1547 18.9083H29.7213C29.2888 18.9083 28.9284 19.032 28.6401 19.2796C28.3517 19.5448 28.2075 19.8807 28.2075 20.2873C28.2075 20.6939 28.3427 21.021 28.613 21.2685C28.9014 21.5337 29.2708 21.6663 29.7213 21.6663ZM32.2894 12.0928C33.2445 12.0928 33.9563 11.8807 34.4249 11.4564C34.9115 11.0144 35.1547 10.4044 35.1547 9.62652C35.1547 8.84862 34.9115 8.24751 34.4249 7.82321C33.9563 7.3989 33.2445 7.18674 32.2894 7.18674C31.3342 7.18674 30.6134 7.3989 30.1268 7.82321C29.6583 8.24751 29.424 8.84862 29.424 9.62652C29.424 10.1392 29.5231 10.5812 29.7213 10.9525C29.9376 11.3238 30.253 11.6066 30.6674 11.8011C31.1 11.9956 31.6406 12.0928 32.2894 12.0928Z" fill="#800080"/>
    <path d="M42.1511 3.07624V0H45.449V3.07624H42.1511ZM42.1511 19.1735V5.22431H45.449V19.1735H42.1511Z" fill="#800080"/>
    <path d="M52.7193 19.4917C51.8363 19.4917 51.1425 19.3238 50.6379 18.9878C50.1333 18.6343 49.7729 18.1923 49.5566 17.6619C49.3584 17.1138 49.2593 16.5569 49.2593 15.9912V7.87624H47.5562V5.22431H49.3403L49.935 1.32597H52.5571V5.22431H55.017V7.87624H52.5571V15.6729C52.5571 16.0442 52.6563 16.3359 52.8545 16.5481C53.0527 16.7425 53.3501 16.8398 53.7465 16.8398H55.017V19.0674C54.8368 19.1381 54.6116 19.2 54.3412 19.253C54.0889 19.3238 53.8186 19.3768 53.5303 19.4122C53.2419 19.4652 52.9716 19.4917 52.7193 19.4917Z" fill="#800080"/>
    <path d="M61.1115 19.4917C60.715 19.4917 60.2554 19.4387 59.7328 19.3326C59.2282 19.2442 58.7327 19.0674 58.2461 18.8022C57.7775 18.537 57.3901 18.1481 57.0837 17.6354C56.7774 17.105 56.6242 16.4155 56.6242 15.5669C56.6242 14.6122 56.8404 13.8254 57.2729 13.2066C57.7054 12.5702 58.3092 12.0751 59.0841 11.7215C59.877 11.3503 60.8141 11.0939 61.8954 10.9525C62.9947 10.7934 64.1931 10.7138 65.4906 10.7138V9.57348C65.4906 9.16685 65.4275 8.80442 65.3014 8.48619C65.1752 8.16796 64.941 7.92044 64.5986 7.74365C64.2742 7.54917 63.7786 7.45193 63.1118 7.45193C62.445 7.45193 61.9224 7.53149 61.544 7.69061C61.1655 7.84972 60.9042 8.0442 60.76 8.27403C60.6159 8.50387 60.5438 8.74254 60.5438 8.99006V9.36133H57.354C57.336 9.27293 57.327 9.18453 57.327 9.09613C57.327 9.00774 57.327 8.90166 57.327 8.7779C57.327 7.98232 57.5703 7.29282 58.0569 6.70939C58.5434 6.12597 59.2192 5.68398 60.0843 5.38343C60.9493 5.06519 61.9494 4.90608 63.0848 4.90608C64.3823 4.90608 65.4456 5.08287 66.2745 5.43647C67.1215 5.79006 67.7523 6.29392 68.1668 6.94807C68.5813 7.60221 68.7885 8.39779 68.7885 9.33481V15.9116C68.7885 16.2475 68.8876 16.4862 69.0859 16.6276C69.2841 16.7691 69.5004 16.8398 69.7346 16.8398H70.5996V19.0674C70.4194 19.1381 70.1581 19.2177 69.8157 19.3061C69.4733 19.4122 69.0498 19.4652 68.5452 19.4652C68.0767 19.4652 67.6532 19.3856 67.2747 19.2265C66.9143 19.0851 66.6079 18.8729 66.3556 18.5901C66.1033 18.3072 65.9231 17.9713 65.815 17.5823H65.6528C65.3465 17.9536 64.977 18.2895 64.5445 18.5901C64.13 18.8729 63.6344 19.0939 63.0578 19.253C62.4991 19.4122 61.8503 19.4917 61.1115 19.4917ZM62.1116 16.8398C62.6523 16.8398 63.1298 16.7602 63.5443 16.6011C63.9768 16.442 64.3283 16.221 64.5986 15.9381C64.8869 15.6552 65.1032 15.3105 65.2473 14.9039C65.4095 14.4972 65.4906 14.0552 65.4906 13.5779V12.9414C64.4995 12.9414 63.5804 13.0033 62.7334 13.1271C61.9044 13.2508 61.2376 13.4807 60.733 13.8166C60.2464 14.1525 60.0032 14.6298 60.0032 15.2486C60.0032 15.5669 60.0752 15.8497 60.2194 16.0972C60.3816 16.3271 60.6159 16.5127 60.9222 16.6541C61.2466 16.7779 61.6431 16.8398 62.1116 16.8398Z" fill="#800080"/>
    <path d="M72.4828 19.1735V0H75.7807V19.1735H72.4828Z" fill="#800080"/>
    <path d="M88.2464 19.1735L83.2185 0.981215H86.9489L89.9494 12.6762C90.0035 12.853 90.0575 13.1006 90.1116 13.4188C90.1657 13.7193 90.2197 14.0376 90.2738 14.3735C90.3278 14.7094 90.3729 15.0099 90.409 15.2751H90.5441C90.5802 15.063 90.6072 14.8332 90.6252 14.5856C90.6612 14.3381 90.6973 14.0906 90.7333 13.8431C90.7874 13.5956 90.8324 13.3746 90.8685 13.1801C90.9045 12.968 90.9316 12.8 90.9496 12.6762L93.7339 0.981215H98.2482L101.032 12.6762C101.087 12.853 101.141 13.1006 101.195 13.4188C101.249 13.7193 101.303 14.0376 101.357 14.3735C101.411 14.7094 101.456 15.0099 101.492 15.2751H101.627C101.663 15.0807 101.699 14.8685 101.735 14.6387C101.789 14.3912 101.834 14.1525 101.87 13.9227C101.925 13.6751 101.979 13.4453 102.033 13.2331C102.087 13.021 102.132 12.8354 102.168 12.6762L105.168 0.981215H108.466L103.411 19.1735H99.3835L96.383 7.23978C96.3289 6.99227 96.2659 6.70939 96.1938 6.39116C96.1397 6.05525 96.0856 5.72818 96.0316 5.40994C95.9955 5.07403 95.9595 4.78232 95.9234 4.53481H95.8153C95.7973 4.8 95.7613 5.10939 95.7072 5.46298C95.6712 5.7989 95.6261 6.12597 95.572 6.4442C95.518 6.76243 95.4639 7.02763 95.4098 7.23978L92.4363 19.1735H88.2464Z" fill="#800080"/>
    <path d="M112.799 19.4917C112.403 19.4917 111.943 19.4387 111.421 19.3326C110.916 19.2442 110.421 19.0674 109.934 18.8022C109.465 18.537 109.078 18.1481 108.772 17.6354C108.465 17.105 108.312 16.4155 108.312 15.5669C108.312 14.6122 108.528 13.8254 108.961 13.2066C109.393 12.5702 109.997 12.0751 110.772 11.7215C111.565 11.3503 112.502 11.0939 113.583 10.9525C114.683 10.7934 115.881 10.7138 117.179 10.7138V9.57348C117.179 9.16685 117.115 8.80442 116.989 8.48619C116.863 8.16796 116.629 7.92044 116.286 7.74365C115.962 7.54917 115.467 7.45193 114.8 7.45193C114.133 7.45193 113.61 7.53149 113.232 7.69061C112.853 7.84972 112.592 8.0442 112.448 8.27403C112.304 8.50387 112.232 8.74254 112.232 8.99006V9.36133H109.042C109.024 9.27293 109.015 9.18453 109.015 9.09613C109.015 9.00774 109.015 8.90166 109.015 8.7779C109.015 7.98232 109.258 7.29282 109.745 6.70939C110.231 6.12597 110.907 5.68398 111.772 5.38343C112.637 5.06519 113.637 4.90608 114.773 4.90608C116.07 4.90608 117.133 5.08287 117.962 5.43647C118.809 5.79006 119.44 6.29392 119.855 6.94807C120.269 7.60221 120.476 8.39779 120.476 9.33481V15.9116C120.476 16.2475 120.576 16.4862 120.774 16.6276C120.972 16.7691 121.188 16.8398 121.423 16.8398H122.288V19.0674C122.107 19.1381 121.846 19.2177 121.504 19.3061C121.161 19.4122 120.738 19.4652 120.233 19.4652C119.765 19.4652 119.341 19.3856 118.963 19.2265C118.602 19.0851 118.296 18.8729 118.044 18.5901C117.791 18.3072 117.611 17.9713 117.503 17.5823H117.341C117.034 17.9536 116.665 18.2895 116.232 18.5901C115.818 18.8729 115.322 19.0939 114.746 19.253C114.187 19.4122 113.538 19.4917 112.799 19.4917ZM113.8 16.8398C114.34 16.8398 114.818 16.7602 115.232 16.6011C115.665 16.442 116.016 16.221 116.286 15.9381C116.575 15.6552 116.791 15.3105 116.935 14.9039C117.097 14.4972 117.179 14.0552 117.179 13.5779V12.9414C116.187 12.9414 115.268 13.0033 114.421 13.1271C113.592 13.2508 112.926 13.4807 112.421 13.8166C111.934 14.1525 111.691 14.6298 111.691 15.2486C111.691 15.5669 111.763 15.8497 111.907 16.0972C112.07 16.3271 112.304 16.5127 112.61 16.6541C112.935 16.7779 113.331 16.8398 113.8 16.8398Z" fill="#800080"/>
    <path d="M124.171 19.1735V0H127.469V19.1735H124.171Z" fill="#800080"/>
    <path d="M130.981 19.1735V0H134.279V19.1735H130.981Z" fill="#800080"/>
    <path d="M143.901 19.4917C142.388 19.4917 141.126 19.2354 140.117 18.7227C139.108 18.1923 138.351 17.3878 137.846 16.3094C137.342 15.2309 137.089 13.8608 137.089 12.1989C137.089 10.5193 137.342 9.14917 137.846 8.0884C138.351 7.00994 139.108 6.21437 140.117 5.70166C141.126 5.17127 142.388 4.90608 143.901 4.90608C145.271 4.90608 146.415 5.16243 147.334 5.67514C148.272 6.17017 148.974 6.93923 149.443 7.98232C149.912 9.02542 150.146 10.3779 150.146 12.0398V12.9945H140.468C140.504 13.8608 140.64 14.5945 140.874 15.1956C141.108 15.779 141.469 16.221 141.955 16.5215C142.46 16.8044 143.118 16.9459 143.928 16.9459C144.343 16.9459 144.73 16.8928 145.091 16.7867C145.451 16.6807 145.767 16.5215 146.037 16.3094C146.307 16.0796 146.515 15.7967 146.659 15.4608C146.821 15.1249 146.902 14.7359 146.902 14.2939H150.146C150.146 15.1779 149.984 15.947 149.659 16.6011C149.353 17.2552 148.911 17.7945 148.335 18.2188C147.776 18.6431 147.118 18.9613 146.361 19.1735C145.604 19.3856 144.784 19.4917 143.901 19.4917ZM140.522 10.7138H146.713C146.713 10.1304 146.641 9.63536 146.496 9.22873C146.37 8.8221 146.181 8.48619 145.929 8.221C145.695 7.9558 145.406 7.77017 145.064 7.66409C144.721 7.54033 144.334 7.47845 143.901 7.47845C143.199 7.47845 142.604 7.59337 142.117 7.82321C141.649 8.05304 141.288 8.40663 141.036 8.88398C140.784 9.36133 140.613 9.97127 140.522 10.7138Z" fill="#800080"/>
    <path d="M156.702 19.4917C155.819 19.4917 155.125 19.3238 154.621 18.9878C154.116 18.6343 153.756 18.1923 153.54 17.6619C153.341 17.1138 153.242 16.5569 153.242 15.9912V7.87624H151.539V5.22431H153.323L153.918 1.32597H156.54V5.22431H159V7.87624H156.54V15.6729C156.54 16.0442 156.639 16.3359 156.837 16.5481C157.036 16.7425 157.333 16.8398 157.73 16.8398H159V19.0674C158.82 19.1381 158.595 19.2 158.324 19.253C158.072 19.3238 157.802 19.3768 157.513 19.4122C157.225 19.4652 156.955 19.4917 156.702 19.4917Z" fill="#800080"/>
</svg>
