<svg width="28" height="28" viewBox="0 0 28 28" fill="none" xmlns="http://www.w3.org/2000/svg">
<path d="M7 26H3C2.73478 26 2.48043 25.8946 2.29289 25.7071C2.10536 25.5196 2 25.2652 2 25V21C2 20.7348 1.89464 20.4804 1.70711 20.2929C1.51957 20.1054 1.26522 20 1 20C0.734784 20 0.48043 20.1054 0.292893 20.2929C0.105357 20.4804 0 20.7348 0 21V25C0 25.7956 0.316071 26.5587 0.87868 27.1213C1.44129 27.6839 2.20435 28 3 28H7C7.26522 28 7.51957 27.8946 7.70711 27.7071C7.89464 27.5196 8 27.2652 8 27C8 26.7348 7.89464 26.4804 7.70711 26.2929C7.51957 26.1054 7.26522 26 7 26Z" fill="white"/>
<path d="M27 20C26.7348 20 26.4804 20.1054 26.2929 20.2929C26.1054 20.4804 26 20.7348 26 21V25C26 25.2652 25.8946 25.5196 25.7071 25.7071C25.5196 25.8946 25.2652 26 25 26H21C20.7348 26 20.4804 26.1054 20.2929 26.2929C20.1054 26.4804 20 26.7348 20 27C20 27.2652 20.1054 27.5196 20.2929 27.7071C20.4804 27.8946 20.7348 28 21 28H25C25.7956 28 26.5587 27.6839 27.1213 27.1213C27.6839 26.5587 28 25.7956 28 25V21C28 20.7348 27.8946 20.4804 27.7071 20.2929C27.5196 20.1054 27.2652 20 27 20Z" fill="white"/>
<path d="M1 8C1.26522 8 1.51957 7.89464 1.70711 7.70711C1.89464 7.51957 2 7.26522 2 7V3C2 2.73478 2.10536 2.48043 2.29289 2.29289C2.48043 2.10536 2.73478 2 3 2H7C7.26522 2 7.51957 1.89464 7.70711 1.70711C7.89464 1.51957 8 1.26522 8 1C8 0.734784 7.89464 0.48043 7.70711 0.292893C7.51957 0.105357 7.26522 0 7 0H3C2.20435 0 1.44129 0.316071 0.87868 0.87868C0.316071 1.44129 0 2.20435 0 3V7C0 7.26522 0.105357 7.51957 0.292893 7.70711C0.48043 7.89464 0.734784 8 1 8Z" fill="white"/>
<path d="M25 0H21C20.7348 0 20.4804 0.105357 20.2929 0.292893C20.1054 0.48043 20 0.734784 20 1C20 1.26522 20.1054 1.51957 20.2929 1.70711C20.4804 1.89464 20.7348 2 21 2H25C25.2652 2 25.5196 2.10536 25.7071 2.29289C25.8946 2.48043 26 2.73478 26 3V7C26 7.26522 26.1054 7.51957 26.2929 7.70711C26.4804 7.89464 26.7348 8 27 8C27.2652 8 27.5196 7.89464 27.7071 7.70711C27.8946 7.51957 28 7.26522 28 7V3C28 2.20435 27.6839 1.44129 27.1213 0.87868C26.5587 0.316071 25.7956 0 25 0Z" fill="white"/>
<path d="M27 13H22V9C22 8.20435 21.6839 7.44129 21.1213 6.87868C20.5587 6.31607 19.7956 6 19 6H9C8.20435 6 7.44129 6.31607 6.87868 6.87868C6.31607 7.44129 6 8.20435 6 9V13H1C0.734784 13 0.48043 13.1054 0.292893 13.2929C0.105357 13.4804 0 13.7348 0 14C0 14.2652 0.105357 14.5196 0.292893 14.7071C0.48043 14.8946 0.734784 15 1 15H6V19C6 19.7956 6.31607 20.5587 6.87868 21.1213C7.44129 21.6839 8.20435 22 9 22H19C19.7956 22 20.5587 21.6839 21.1213 21.1213C21.6839 20.5587 22 19.7956 22 19V15H27C27.2652 15 27.5196 14.8946 27.7071 14.7071C27.8946 14.5196 28 14.2652 28 14C28 13.7348 27.8946 13.4804 27.7071 13.2929C27.5196 13.1054 27.2652 13 27 13ZM8 9C8 8.73478 8.10536 8.48043 8.29289 8.29289C8.48043 8.10536 8.73478 8 9 8H19C19.2652 8 19.5196 8.10536 19.7071 8.29289C19.8946 8.48043 20 8.73478 20 9V13H8V9ZM20 19C20 19.2652 19.8946 19.5196 19.7071 19.7071C19.5196 19.8946 19.2652 20 19 20H9C8.73478 20 8.48043 19.8946 8.29289 19.7071C8.10536 19.5196 8 19.2652 8 19V15H20V19Z" fill="white"/>
</svg>
