<svg width="16" height="16" viewBox="0 0 16 16" fill="none" xmlns="http://www.w3.org/2000/svg">
<path d="M14.4729 7.52666L8.47289 1.52667C8.21289 1.26667 7.79289 1.26667 7.53289 1.52667L1.53289 7.52666C1.27289 7.78666 1.27289 8.20666 1.53289 8.46666L7.53289 14.4667C7.79289 14.7267 8.21289 14.7267 8.47289 14.4667L14.4729 8.46666C14.7329 8.21333 14.7329 7.79333 14.4729 7.52666ZM9.33289 9.66666V8H6.66622V9.33333C6.66622 9.7 6.36622 10 5.99956 10C5.63289 10 5.33289 9.7 5.33289 9.33333V7.33333C5.33289 6.96666 5.63289 6.66666 5.99956 6.66666H9.33289V5L11.4329 7.1C11.5662 7.23333 11.5662 7.44 11.4329 7.57333L9.33289 9.66666Z" fill="#800080"/>
</svg>
