<svg width="20" height="20" viewBox="0 0 20 20" fill="none" xmlns="http://www.w3.org/2000/svg">
<path fill-rule="evenodd" clip-rule="evenodd" d="M10 19.1667C4.93743 19.1667 0.833374 15.0626 0.833374 10C0.833374 4.93743 4.93743 0.833374 10 0.833374C15.0626 0.833374 19.1667 4.93743 19.1667 10C19.1667 15.0626 15.0626 19.1667 10 19.1667ZM16.1663 14.2706C17.0072 13.0586 17.5 11.5869 17.5 10C17.5 5.8579 14.1422 2.50004 10 2.50004C5.8579 2.50004 2.50004 5.8579 2.50004 10C2.50004 11.5869 2.99286 13.0586 3.83379 14.2706C4.77167 13.0318 6.97554 12.5 10 12.5C13.0245 12.5 15.2284 13.0318 16.1663 14.2706ZM14.9706 15.6165C14.7267 14.7395 12.9745 14.1667 10 14.1667C7.02556 14.1667 5.27338 14.7395 5.02947 15.6165C6.35279 16.7885 8.09332 17.5 10 17.5C11.9068 17.5 13.6473 16.7885 14.9706 15.6165ZM10 5.00004C7.98262 5.00004 6.66671 6.46317 6.66671 8.33337C6.66671 11.1895 8.13409 12.5 10 12.5C11.8484 12.5 13.3334 11.2331 13.3334 8.50004C13.3334 6.60136 12.0119 5.00004 10 5.00004ZM8.33337 8.33337C8.33337 10.2244 9.01522 10.8334 10 10.8334C10.9815 10.8334 11.6667 10.2487 11.6667 8.50004C11.6667 7.45872 11.0131 6.66671 10 6.66671C8.94482 6.66671 8.33337 7.34656 8.33337 8.33337Z" fill="#002540" fill-opacity="0.7"/>
</svg>
