<svg width="20" height="20" viewBox="0 0 20 20" fill="none" xmlns="http://www.w3.org/2000/svg">
<path d="M16.0082 0.821045C15.7914 0.821358 15.575 0.905958 15.4117 1.07414C15.0917 1.40368 15.0985 1.92994 15.4274 2.2509C16.0423 2.86615 16.6576 3.48111 17.2731 4.09578C17.4394 4.26199 17.5228 4.47415 17.5229 4.68579C17.5231 4.89744 17.4393 5.10869 17.2731 5.27498C16.6577 5.89027 16.0426 6.50593 15.4274 7.1215C15.092 7.44914 15.0927 7.98868 15.429 8.31535C15.7585 8.63531 16.2848 8.62847 16.6057 8.29991L18.4523 6.4534C19.4217 5.48371 19.4214 3.88664 18.4514 2.91743L16.6057 1.07172C16.4419 0.904018 16.2251 0.82076 16.0084 0.821073L16.0082 0.821045ZM8.34542 3.85164C5.36375 3.85164 2.92874 6.28664 2.92874 9.26831H2.92559C2.92086 9.72764 3.28745 10.1046 3.74672 10.1114C4.21556 10.1183 4.59776 9.73716 4.59227 9.26831C4.59227 7.18737 6.26376 5.51912 8.34471 5.51912V5.51831H15.0122C15.4715 5.52366 15.8485 5.15646 15.8553 4.69718C15.8616 4.22835 15.481 3.84615 15.0122 3.85164H8.34542ZM16.2255 9.89005C15.7662 9.89683 15.3989 10.2738 15.4043 10.7332H15.4075C15.4075 12.8141 13.736 14.4823 11.655 14.4823C9.43255 14.4832 7.21005 14.4832 4.98756 14.4832C4.51871 14.4776 4.1376 14.8599 4.14446 15.3287C4.15075 15.788 4.52827 16.1552 4.98756 16.1498C7.21005 16.1501 9.43255 16.1496 11.655 16.149V16.1498C14.6367 16.1498 17.0717 13.7148 17.0717 10.7332C17.078 10.2643 16.695 9.8832 16.2262 9.89005H16.2255ZM3.99157 11.4493C3.77485 11.449 3.55806 11.5322 3.39424 11.7L1.54853 13.5457C0.578566 14.5149 0.578235 16.1119 1.54772 17.0816C2.16301 17.6971 2.77868 18.3122 3.39424 18.9273C3.7152 19.256 4.24145 19.2636 4.57099 18.9436C4.90735 18.6169 4.90803 18.0766 4.57257 17.749L2.72686 15.9032C2.5606 15.737 2.4769 15.5249 2.47702 15.3132C2.47715 15.1016 2.56049 14.8903 2.72686 14.724C3.34279 14.1095 3.95753 13.4938 4.57257 12.8783C4.90115 12.5574 4.90798 12.0311 4.58831 11.7016C4.42498 11.5334 4.20852 11.4496 3.99179 11.4493L3.99157 11.4493Z" fill="#0070F7"/>
</svg>
