<svg width="24" height="24" viewBox="0 0 24 24" fill="none" xmlns="http://www.w3.org/2000/svg">
<path d="M21.7001 23C21.4001 23 21 22.8 20.8 22.5C18.9 19.4 15.6 17.5 12 17.5C8.40005 17.5 5.10005 19.4 3.20005 22.5C2.90005 23 2.30005 23.1 1.80005 22.8C1.30005 22.5 1.20005 21.9 1.50005 21.4C3.70005 17.7 7.70005 15.4 12 15.4C16.3 15.4 20.3 17.6 22.5 21.4C22.8 21.9 22.6 22.5 22.2001 22.8C22 23 21.8001 23 21.7001 23Z" fill="#002540" fill-opacity="0.7"/>
<path d="M12 13C8.7 13 6 10.3 6 7C6 3.7 8.7 1 12 1C15.3 1 18 3.7 18 7C18 10.3 15.3 13 12 13ZM12 3C9.8 3 8 4.8 8 7C8 9.2 9.8 11 12 11C14.2 11 16 9.2 16 7C16 4.8 14.2 3 12 3Z" fill="#002540" fill-opacity="0.7"/>
</svg>
